<?xml version="1.0" encoding="utf-8"?>
<!-- Generator: Adobe Illustrator 16.0.0, SVG Export Plug-In . SVG Version: 6.00 Build 0)  -->
<!DOCTYPE svg PUBLIC "-//W3C//DTD SVG 1.1//EN" "http://www.w3.org/Graphics/SVG/1.1/DTD/svg11.dtd">
<svg version="1.1" id="Layer_1" xmlns="http://www.w3.org/2000/svg" xmlns:xlink="http://www.w3.org/1999/xlink" x="0px" y="0px"
	 viewBox="0 0 649.381 842.468" enable-background="new 0 0 649.381 842.468"
	 xml:space="preserve">
<path fill="none" d="M621.238,0H28.704C12.876,0,0,12.747,0,28.414V814.17c0,15.604,12.876,28.298,28.704,28.298h592.534
	c15.52,0,28.143-12.693,28.143-28.298V28.414C649.381,12.747,636.758,0,621.238,0z M583.805,766.208c0,0.688-0.581,1.273-1.27,1.273
	H66.931c-0.689,0-1.273-0.585-1.273-1.273V77.639c0-0.691,0.584-1.274,1.273-1.274h515.604c0.688,0,1.27,0.583,1.27,1.274V766.208z"
	/>
<g>
	<path fill="#bdc3c7" d="M290.967,32.328c-2.07,0-3.756,1.689-3.756,3.761c0,2.07,1.686,3.756,3.756,3.756
		c2.075,0,3.761-1.686,3.761-3.756C294.728,34.017,293.042,32.328,290.967,32.328z"/>
</g>
<g>
	<path fill="#bdc3c7" d="M342.064,33.739c1.369,0,2.487,1.116,2.487,2.488c0,1.37-1.118,2.483-2.487,2.483h-30.19
		c-1.372,0-2.488-1.113-2.488-2.483c0-1.372,1.116-2.488,2.488-2.488H342.064"/>
</g>
<g>
	<path fill="#bdc3c7" d="M325.587,789c-11.232,0-20.371,9.136-20.371,20.368c0,11.234,9.139,20.371,20.371,20.371
		c11.23,0,20.369-9.137,20.369-20.371C345.956,798.135,336.817,789,325.587,789z M333.223,812.977c0,2.107-1.711,3.817-3.818,3.817
		h-7.639c-2.106,0-3.82-1.71-3.82-3.817v-7.215c0-2.106,1.714-3.818,3.82-3.818h7.639c2.107,0,3.818,1.712,3.818,3.818V812.977z"/>
	<path fill="#bdc3c7" d="M329.673,804.147h-8.172c-0.751,0-1.364,0.611-1.364,1.363v7.718c0,0.754,0.613,1.364,1.364,1.364h8.172
		c0.751,0,1.364-0.61,1.364-1.364v-7.718C331.037,804.758,330.424,804.147,329.673,804.147z"/>
</g>
</svg>
