<?xml version="1.0" encoding="utf-8"?>
<!-- Generator: Adobe Illustrator 16.0.0, SVG Export Plug-In . SVG Version: 6.00 Build 0)  -->
<!DOCTYPE svg PUBLIC "-//W3C//DTD SVG 1.1//EN" "http://www.w3.org/Graphics/SVG/1.1/DTD/svg11.dtd">
<svg version="1.1" id="Layer_1" xmlns="http://www.w3.org/2000/svg" xmlns:xlink="http://www.w3.org/1999/xlink" x="0px" y="0px"
	 width="642px" height="960px" viewBox="0 0 642 960" enable-background="new 0 0 642 960" xml:space="preserve">
<g id="Layer_2" display="none">
</g>
<g id="Layer_1_1_" display="none">
	<g display="inline">
		<g>
			<path fill="#7F8C8D" d="M85,581.33h30.803l-0.788,5.501H91.127v16.422h21.533l-0.787,5.5H91.127v20.114h24.675l-0.788,5.5H85
				V581.33z"/>
			<path fill="#7F8C8D" d="M128.373,580.545h6.129v48.323h23.885v5.5h-30.014V580.545L128.373,580.545z"/>
			<path fill="#7F8C8D" d="M186.675,581.33h6.128v53.038h-6.128V581.33z"/>
			<path fill="#7F8C8D" d="M212.759,592.174v42.194h-5.813v-52.252l5.813-0.786l26.091,41.646V581.33h6.125v53.038h-6.125
				L212.759,592.174z"/>
			<path fill="#7F8C8D" d="M286.701,612.211l6.127-1.572v21.608c0,0-7.467,2.907-15.401,2.907c-12.804,0-21.371-9.899-21.371-27.345
				c0-17.365,7.934-27.266,20.898-27.266c9.274,0,15.401,4.086,15.401,4.086l-1.569,4.399c0,0-6.68-2.984-13.832-2.984
				c-8.875,0-14.771,9.114-14.613,21.764c-0.158,10.451,5.341,21.843,14.771,21.843c3.537,0,6.758-0.549,9.588-1.334
				L286.701,612.211L286.701,612.211z"/>
			<path fill="#7F8C8D" d="M306.188,581.33h30.803l-0.785,5.501h-23.888v16.422h21.531l-0.786,5.5h-20.745v20.114h24.673l-0.785,5.5
				h-30.018V581.33z"/>
			<path fill="#7F8C8D" d="M355.376,592.174v42.194h-5.816v-52.252l5.816-0.786l26.089,41.646V581.33h6.129v53.038h-6.129
				L355.376,592.174z"/>
			<path fill="#7F8C8D" d="M401.737,581.33h6.126v53.038h-6.126V581.33z"/>
			<path fill="#7F8C8D" d="M440,580.545c12.811,0,20.98,9.9,20.98,27.266c0,17.287-8.17,27.345-20.98,27.345
				c-12.963,0-21.057-10.058-21.057-27.345C418.945,590.445,427.037,580.545,440,580.545z M440,586.046
				c-9.664,0-15.007,7.698-14.929,21.764c-0.078,14.615,5.265,21.843,14.929,21.843c9.586,0,14.772-7.228,14.853-21.843
				C454.773,593.744,449.586,586.046,440,586.046z"/>
			<path fill="#7F8C8D" d="M472.063,626.433c0,0,7.071,3.22,14.848,3.22c7.701,0,12.967-2.749,12.967-9.113
				c0-14.224-28.523-7.387-28.523-26.479c0-9.352,9.271-13.516,18.779-13.516c7.23,0,13.751,2.907,13.751,2.907l-1.574,4.871
				c0,0-5.813-2.276-12.253-2.276c-7.15-0.081-12.573,2.119-12.573,8.171c0,12.729,28.523,6.757,28.523,26.008
				c0,10.373-8.8,14.93-19.173,14.93c-10.137,0-16.498-4.086-16.498-4.086L472.063,626.433z"/>
			<path fill="#7F8C8D" d="M536.021,580.545c12.807,0,20.979,9.9,20.979,27.266c0,17.287-8.173,27.345-20.979,27.345
				c-12.963,0-21.057-10.058-21.057-27.345C514.964,590.445,523.058,580.545,536.021,580.545z M536.021,586.046
				c-9.665,0-15.007,7.698-14.931,21.764c-0.076,14.615,5.267,21.843,14.931,21.843c9.585,0,14.773-7.228,14.849-21.843
				C550.794,593.744,545.607,586.046,536.021,586.046z"/>
		</g>
	</g>
	<g display="inline">
		<g>
			<path fill="#2C3E50" d="M133.824,713.759H94.893v40.579H85V668.74h9.893v36.141h38.932V668.74h9.888v85.599h-9.888V713.759z"/>
			<path fill="#2C3E50" d="M166.538,668.74h9.893v85.599h-9.893V668.74z"/>
			<path fill="#2C3E50" d="M199.259,668.74h27.643c20.413,0,32.72,14.71,32.72,42.483c0,26.883-13.319,43.115-33.477,43.115h-26.886
				V668.74z M226.651,745.461c14.704,0,22.823-18.135,22.823-34.237c0-20.038-8.75-33.604-22.573-33.604h-17.753v67.843
				L226.651,745.461L226.651,745.461z"/>
			<path fill="#2C3E50" d="M308.568,668.74l31.96,85.599h-10.646l-7.867-21.177h-37.794l-7.986,21.177h-10.522l31.956-84.329
				L308.568,668.74z M287.522,724.282h31.32l-15.47-41.975L287.522,724.282z"/>
			<path fill="#2C3E50" d="M353.846,667.471h9.888v77.989h38.556v8.877h-48.442L353.846,667.471L353.846,667.471z"/>
			<path fill="#2C3E50" d="M462.648,718.577l9.892-2.536v34.873c0,0-12.05,4.692-24.856,4.692
				c-20.669,0-34.493-15.978-34.493-44.131c0-28.025,12.812-44.004,33.732-44.004c14.963,0,24.854,6.594,24.854,6.594l-2.533,7.103
				c0,0-10.78-4.817-22.321-4.817c-14.326,0-23.837,14.711-23.587,35.125c-0.25,16.866,8.628,35.252,23.839,35.252
				c5.712,0,10.906-0.886,15.474-2.153V718.577z"/>
			<path fill="#2C3E50" d="M523.138,667.471c20.673,0,33.862,15.979,33.862,44.004c0,27.899-13.189,44.131-33.862,44.131
				c-20.926,0-33.986-16.231-33.986-44.131C489.151,683.45,502.211,667.471,523.138,667.471z M523.138,676.35
				c-15.597,0-24.219,12.425-24.094,35.125c-0.125,23.586,8.497,35.252,24.094,35.252c15.469,0,23.841-11.666,23.969-35.252
				C546.979,688.774,538.607,676.35,523.138,676.35z"/>
		</g>
	</g>
	<g display="inline">
		<path fill="#7F8C8D" d="M105.111,787.765c0,0-3.352-1.819-7.469-1.819c-5.41,0-9.004,5.555-8.907,13.267
			c-0.098,6.608,3.258,13.313,9.007,13.313c4.595,0,8.618-2.491,8.618-2.491v3.593c0,0-3.833,2.251-8.428,2.251
			c-7.812,0-12.933-6.037-12.933-16.667c0-10.584,4.743-16.62,12.642-16.62c5.363,0,8.429,2.49,8.429,2.49L105.111,787.765z"/>
		<path fill="#7F8C8D" d="M120.589,790.973c6.078,0,9.912,4.55,9.912,12.453c0,7.854-3.833,12.453-9.912,12.453
			c-6.083,0-9.917-4.599-9.917-12.453C110.672,795.523,114.506,790.973,120.589,790.973z M120.589,794.327
			c-4.168,0-6.229,3.4-6.18,9.1c-0.049,5.698,2.011,9.1,6.18,9.1c4.162,0,6.27-3.401,6.178-9.1
			C126.859,797.727,124.751,794.327,120.589,794.327z"/>
		<path fill="#7F8C8D" d="M136.494,791.452h3.734v1.68c1.866-1.104,4.359-2.158,7.231-2.158c2.394,0,4.451,0.959,5.698,3.019
			c1.866-1.295,4.931-3.019,8.574-3.019c3.833,0,6.899,2.394,6.899,7.809v16.617h-3.736v-15.373c0-3.449-1.057-5.698-4.168-5.698
			c-2.828,0-5.414,1.149-6.656,1.771c0.19,0.814,0.287,1.677,0.287,2.684V815.4h-3.737v-15.373c0-3.449-1.052-5.697-4.17-5.697
			c-2.487,0-4.881,0.907-6.222,1.579v19.492h-3.734L136.494,791.452L136.494,791.452z"/>
		<path fill="#7F8C8D" d="M178.212,813.819v10.009l-3.735,1.149v-33.525h3.111l0.624,1.915c1.68-1.198,4.023-2.394,7.091-2.394
			c4.691,0,7.852,4.503,7.852,12.405c0,7.375-3.734,12.5-9.815,12.5C181.23,815.879,179.461,814.875,178.212,813.819z
			 M178.212,796.051v14.605c1.104,0.911,2.828,1.869,5.126,1.869c3.688,0,6.176-4.215,6.081-9.146
			c0.095-4.743-1.435-9.053-5.891-9.053C181.613,794.327,179.654,795.188,178.212,796.051z"/>
		<path fill="#7F8C8D" d="M215.624,815.398h-3.261l-0.479-1.915c-1.864,1.291-4.163,2.396-6.797,2.396
			c-3.832,0-6.897-2.396-6.897-7.808v-16.619h3.737v15.374c0,3.448,1.049,5.7,4.166,5.7c2.246,0,4.408-1.104,5.792-2.012v-19.062
			h3.739L215.624,815.398L215.624,815.398z"/>
		<path fill="#7F8C8D" d="M238.089,811.233v2.68c0,0-4.216,1.966-7.613,1.966c-6.082,0-10.059-4.505-10.059-12.406
			c0-7.853,3.733-12.452,9.816-12.452c10.25,0,8.814,13.747,8.814,13.747h-14.897c0.29,4.403,2.398,7.758,6.229,7.758
			C233.97,812.525,238.089,811.233,238.089,811.233z M235.695,801.412c-0.239-4.739-2.775-7.039-5.46-7.039
			c-3.638,0-5.601,2.588-6.033,7.039H235.695z"/>
		<path fill="#7F8C8D" d="M243.123,811.422c0,0,3.111,1.248,6.562,1.248c3.353,0,5.699-1.39,5.699-3.93
			c0-5.794-12.885-2.394-12.885-11.158c0-4.742,4.457-6.609,9.006-6.609c3.446,0,6.273,1.342,6.273,1.342l-0.671,2.73
			c0,0-2.636-0.863-5.603-0.863c-2.828,0-5.559,1.006-5.559,3.399c0,5.22,12.934,2.155,12.934,10.969
			c0,4.933-4.119,7.327-9.194,7.327c-4.413,0-7.331-1.775-7.331-1.775L243.123,811.422z"/>
		<path fill="#7F8C8D" d="M263.721,791.452h2.108l0.479-4.07h3.256v4.07h6.18l-0.958,3.113h-5.222v14.847
			c0,2.155,0.667,3.113,2.638,3.113c2.199,0,4.446-0.24,4.446-0.24l0.337,2.588c0,0-2.868,1.005-5.218,1.005
			c-5.124,0-5.938-2.778-5.938-6.372v-14.941h-2.108V791.452z"/>
		<path fill="#7F8C8D" d="M290.259,790.973c6.083,0,9.918,4.55,9.918,12.453c0,7.854-3.834,12.453-9.918,12.453
			s-9.912-4.599-9.912-12.453C280.347,795.523,284.175,790.973,290.259,790.973z M290.259,794.327c-4.166,0-6.224,3.4-6.175,9.1
			c-0.049,5.698,2.01,9.1,6.175,9.1c4.167,0,6.273-3.401,6.176-9.1C296.532,797.727,294.426,794.327,290.259,794.327z"/>
		<path fill="#7F8C8D" d="M319.574,813.819v10.009l-3.733,1.149v-33.525h3.113l0.62,1.915c1.677-1.198,4.025-2.394,7.089-2.394
			c4.695,0,7.855,4.503,7.855,12.405c0,7.375-3.735,12.5-9.818,12.5C322.595,815.879,320.82,814.875,319.574,813.819z
			 M319.574,796.051v14.605c1.104,0.911,2.824,1.869,5.125,1.869c3.688,0,6.181-4.215,6.083-9.146
			c0.098-4.743-1.439-9.053-5.892-9.053C322.98,794.327,321.012,795.188,319.574,796.051z"/>
		<path fill="#7F8C8D" d="M348.751,790.973c6.077,0,9.911,4.55,9.911,12.453c0,7.854-3.834,12.453-9.911,12.453
			c-6.087,0-9.916-4.599-9.916-12.453C338.835,795.523,342.664,790.973,348.751,790.973z M348.751,794.327
			c-4.171,0-6.23,3.4-6.18,9.1c-0.052,5.698,2.009,9.1,6.18,9.1c4.161,0,6.27-3.401,6.173-9.1
			C355.021,797.727,352.912,794.327,348.751,794.327z"/>
		<path fill="#7F8C8D" d="M374.756,794.327c-2.919,0-5.509,1.294-7.229,2.396v18.677h-3.736v-23.946h3.736v2.299
			c1.672-1.292,4.167-2.777,7.229-2.777V794.327z"/>
		<path fill="#7F8C8D" d="M407.045,811.233v2.68c0,0-4.216,1.966-7.616,1.966c-6.08,0-10.06-4.505-10.06-12.406
			c0-7.853,3.737-12.452,9.82-12.452c10.25,0,8.812,13.747,8.812,13.747h-14.894c0.287,4.403,2.396,7.758,6.229,7.758
			C402.924,812.525,407.045,811.233,407.045,811.233z M404.65,801.412c-0.239-4.739-2.776-7.039-5.46-7.039
			c-3.642,0-5.603,2.588-6.031,7.039H404.65z"/>
		<path fill="#7F8C8D" d="M423.284,815.303c0,0-2.438,0.575-4.356,0.575c-4.887,0-5.938-3.163-5.938-6.372c0-2.25,0-30.027,0-30.027
			h3.731v29.933c0,2.105,0.814,3.113,2.161,3.113c1.482,0,3.926-0.192,3.926-0.192L423.284,815.303z"/>
		<path fill="#7F8C8D" d="M438.232,783.07h4.069v4.072h-4.069V783.07z M438.378,791.452h3.733v23.946h-3.733V791.452z"/>
		<path fill="#7F8C8D" d="M458.445,815.303c0,0-2.44,0.575-4.358,0.575c-4.884,0-5.938-3.163-5.938-6.372c0-2.25,0-30.027,0-30.027
			h3.734v29.933c0,2.105,0.815,3.113,2.158,3.113c1.486,0,3.926-0.192,3.926-0.192L458.445,815.303z"/>
		<path fill="#7F8C8D" d="M480.192,815.398h-3.26l-0.479-1.915c-1.863,1.291-4.162,2.396-6.802,2.396
			c-3.83,0-6.893-2.396-6.893-7.808v-16.619h3.733v15.374c0,3.448,1.053,5.7,4.167,5.7c2.249,0,4.408-1.104,5.794-2.012v-19.062
			h3.738V815.398z"/>
		<path fill="#7F8C8D" d="M486.327,811.422c0,0,3.11,1.248,6.56,1.248c3.352,0,5.699-1.39,5.699-3.93
			c0-5.794-12.884-2.394-12.884-11.158c0-4.742,4.455-6.609,9.007-6.609c3.442,0,6.271,1.342,6.271,1.342l-0.668,2.73
			c0,0-2.634-0.863-5.602-0.863c-2.828,0-5.558,1.006-5.558,3.399c0,5.22,12.931,2.155,12.931,10.969
			c0,4.933-4.118,7.327-9.196,7.327c-4.407,0-7.33-1.775-7.33-1.775L486.327,811.422z"/>
		<path fill="#7F8C8D" d="M506.922,791.452h2.11l0.477-4.07h3.255v4.07h6.18l-0.955,3.113h-5.225v14.847
			c0,2.155,0.673,3.113,2.636,3.113c2.203,0,4.455-0.24,4.455-0.24l0.336,2.588c0,0-2.871,1.005-5.221,1.005
			c-5.126,0-5.938-2.778-5.938-6.372v-14.941h-2.11V791.452z"/>
		<path fill="#7F8C8D" d="M536.048,794.327c-2.921,0-5.511,1.294-7.232,2.396v18.677h-3.736v-23.946h3.736v2.299
			c1.674-1.292,4.167-2.777,7.232-2.777V794.327z"/>
		<path fill="#7F8C8D" d="M555.972,811.233v2.68c0,0-4.215,1.966-7.611,1.966c-6.086,0-10.058-4.505-10.058-12.406
			c0-7.853,3.733-12.452,9.814-12.452c10.252,0,8.813,13.747,8.813,13.747h-14.895c0.29,4.403,2.397,7.758,6.225,7.758
			C551.854,812.525,555.972,811.233,555.972,811.233z M553.579,801.412c-0.24-4.739-2.777-7.039-5.461-7.039
			c-3.638,0-5.6,2.588-6.032,7.039H553.579z"/>
	</g>
	<g display="inline">
		<path fill="#7F8C8D" d="M96.61,870.325l7.574-22.137h4.077v26.214h-2.872l-0.037-20.388l-7.302,20.388h-2.837l-7.34-20.388v20.388
			H85v-25.826l4.078-0.388L96.61,870.325z"/>
		<path fill="#7F8C8D" d="M114.17,848.188h3.3v3.302h-3.3V848.188z M114.288,854.985h3.027v19.418h-3.027V854.985z"/>
		<path fill="#7F8C8D" d="M134.484,856.538l0.506-1.553h2.522v17.477c0,7.068-1.593,10.097-7.224,10.097
			c-3.886,0-6.523-1.94-6.523-1.94l0.387-1.903c0,0,2.566,1.125,6.138,1.125c3.496,0,4.119-2.251,4.194-6.68
			c-1.167,0.854-2.796,1.631-5.087,1.631c-3.807,0-7.144-3.651-7.144-10.06c0-5.979,3.028-10.136,7.958-10.136
			C131.959,854.597,133.434,855.566,134.484,856.538z M134.484,870.714v-11.612c-0.932-0.815-2.329-1.786-4.272-1.786
			c-2.989,0-5.008,3.417-4.929,7.417c-0.079,3.846,1.164,7.341,4.773,7.341C131.648,872.074,133.279,871.373,134.484,870.714z"/>
		<path fill="#7F8C8D" d="M156.391,874.403h-2.641l-0.388-1.552c-1.516,1.046-3.38,1.941-5.515,1.941
			c-3.11,0-5.594-1.941-5.594-6.331v-13.478h3.029v12.467c0,2.796,0.855,4.622,3.381,4.622c1.824,0,3.57-0.896,4.698-1.632v-15.457
			h3.027L156.391,874.403L156.391,874.403z"/>
		<path fill="#7F8C8D" d="M174.608,871.025v2.173c0,0-3.414,1.595-6.175,1.595c-4.934,0-8.155-3.652-8.155-10.061
			c0-6.367,3.029-10.097,7.961-10.097c8.312,0,7.149,11.146,7.149,11.146h-12.081c0.234,3.571,1.941,6.292,5.05,6.292
			C171.269,872.074,174.608,871.025,174.608,871.025z M172.667,863.062c-0.195-3.843-2.253-5.708-4.428-5.708
			c-2.953,0-4.543,2.098-4.893,5.708H172.667z"/>
		<path fill="#7F8C8D" d="M187.78,874.326c0,0-1.982,0.467-3.534,0.467c-3.959,0-4.817-2.564-4.817-5.168c0-1.824,0-24.349,0-24.349
			h3.031v24.272c0,1.708,0.663,2.524,1.751,2.524c1.202,0,3.182-0.155,3.182-0.155L187.78,874.326z"/>
		<path fill="#7F8C8D" d="M214.579,874.403h-2.522l-0.507-1.514c-1.166,0.97-2.833,1.903-5.165,1.903
			c-3.803,0-7.146-3.652-7.146-10.061c0-5.979,3.028-10.136,7.963-10.136c1.785,0,3.299,0.933,4.348,1.864v-11.186h3.029V874.403
			L214.579,874.403z M211.55,870.442v-11.457c-0.896-0.776-2.369-1.669-4.348-1.669c-2.993,0-5.011,3.417-4.935,7.417
			c-0.076,3.846,1.166,7.341,4.78,7.341C208.676,872.074,210.347,871.257,211.55,870.442z"/>
		<path fill="#7F8C8D" d="M232.88,871.025v2.173c0,0-3.421,1.595-6.181,1.595c-4.929,0-8.155-3.652-8.155-10.061
			c0-6.367,3.033-10.097,7.964-10.097c8.312,0,7.145,11.146,7.145,11.146h-12.076c0.23,3.571,1.939,6.292,5.05,6.292
			C229.535,872.074,232.88,871.025,232.88,871.025z M230.936,863.062c-0.194-3.843-2.251-5.708-4.427-5.708
			c-2.956,0-4.543,2.098-4.893,5.708H230.936z"/>
		<path fill="#7F8C8D" d="M262.282,851.996c0,0-2.72-1.475-6.059-1.475c-4.39,0-7.301,4.503-7.223,10.757
			c-0.078,5.359,2.64,10.796,7.298,10.796c3.73,0,6.988-2.02,6.988-2.02v2.913c0,0-3.102,1.826-6.834,1.826
			c-6.328,0-10.483-4.896-10.483-13.516c0-8.583,3.845-13.478,10.254-13.478c4.353,0,6.835,2.021,6.835,2.021L262.282,851.996z"/>
		<path fill="#7F8C8D" d="M280.929,871.025v2.173c0,0-3.42,1.595-6.181,1.595c-4.928,0-8.152-3.652-8.152-10.061
			c0-6.367,3.029-10.097,7.964-10.097c8.309,0,7.142,11.146,7.142,11.146h-12.077c0.234,3.571,1.942,6.292,5.051,6.292
			C277.586,872.074,280.929,871.025,280.929,871.025z M278.985,863.062c-0.192-3.843-2.248-5.708-4.424-5.708
			c-2.957,0-4.55,2.098-4.894,5.708H278.985z"/>
		<path fill="#7F8C8D" d="M294.64,857.316c-2.369,0-4.463,1.049-5.867,1.942v15.145h-3.025v-19.418h3.025v1.864
			c1.365-1.047,3.381-2.252,5.867-2.252V857.316z"/>
		<path fill="#7F8C8D" d="M314.218,855.762l-6.875,18.641h-3.029l-6.953-18.641l2.72-0.777l5.71,15.34l5.667-15.34L314.218,855.762z
			"/>
		<path fill="#7F8C8D" d="M316.59,856.266c0,0,3.377-1.669,6.641-1.669c4.423,0,5.982,1.708,5.982,5.553v14.253h-2.525l-0.503-1.631
			c-1.323,1.165-2.992,2.021-4.818,2.021c-3.842,0-6.795-2.447-6.795-6.098c0-3.729,3.183-5.67,6.174-5.67h5.439v-2.796
			c0-2.641-1.247-2.913-2.914-2.913c-2.838,0-6.217,0.933-6.217,0.933L316.59,856.266z M326.185,865.743h-4.972
			c-2.915,0-3.613,1.283-3.613,2.953c0,1.902,1.359,3.378,3.73,3.378c2.443,0,4.854-2.059,4.854-4.194V865.743z"/>
		<path fill="#7F8C8D" d="M333.877,854.985h3.025v1.592c1.559-0.971,3.691-1.979,6.213-1.979c3.107,0,5.595,1.94,5.595,6.332v13.475
			h-3.032v-12.466c0-2.797-0.851-4.621-3.377-4.621c-2.291,0-4.387,0.933-5.397,1.437v15.65h-3.025L333.877,854.985L333.877,854.985
			z"/>
		<path fill="#7F8C8D" d="M352.989,854.985h1.706l0.39-3.301h2.643v3.301h5.011l-0.781,2.524h-4.229v12.04
			c0,1.748,0.545,2.524,2.134,2.524c1.79,0,3.616-0.193,3.616-0.193l0.268,2.098c0,0-2.329,0.814-4.232,0.814
			c-4.155,0-4.816-2.254-4.816-5.167V857.51h-1.706L352.989,854.985L352.989,854.985z"/>
		<path fill="#7F8C8D" d="M380.797,871.025v2.173c0,0-3.418,1.595-6.175,1.595c-4.93,0-8.157-3.652-8.157-10.061
			c0-6.367,3.028-10.097,7.964-10.097c8.311,0,7.145,11.146,7.145,11.146h-12.08c0.234,3.571,1.945,6.292,5.051,6.292
			C377.454,872.074,380.797,871.025,380.797,871.025z M378.856,863.062c-0.196-3.843-2.25-5.708-4.427-5.708
			c-2.953,0-4.544,2.098-4.895,5.708H378.856z"/>
		<path fill="#7F8C8D" d="M384.877,871.178c0,0,2.528,1.012,5.324,1.012c2.72,0,4.62-1.126,4.62-3.186
			c0-4.698-10.444-1.941-10.444-9.048c0-3.847,3.608-5.36,7.295-5.36c2.8,0,5.089,1.088,5.089,1.088l-0.542,2.214
			c0,0-2.137-0.699-4.547-0.699c-2.288,0-4.502,0.815-4.502,2.758c0,4.231,10.485,1.748,10.485,8.894c0,4-3.338,5.941-7.455,5.941
			c-3.575,0-5.941-1.439-5.941-1.439L384.877,871.178z"/>
		<path fill="#7F8C8D" d="M411.567,870.48c0,0,3.495,1.593,7.338,1.593c3.81,0,6.41-1.359,6.41-4.504
			c0-7.031-14.097-3.653-14.097-13.089c0-4.622,4.583-6.681,9.285-6.681c3.567,0,6.795,1.438,6.795,1.438l-0.777,2.408
			c0,0-2.875-1.125-6.06-1.125c-3.534-0.04-6.215,1.047-6.215,4.037c0,6.292,14.098,3.341,14.098,12.854
			c0,5.127-4.35,7.38-9.478,7.38c-5.009,0-8.154-2.02-8.154-2.02L411.567,870.48z"/>
		<path fill="#7F8C8D" d="M434.175,856.266c0,0,3.378-1.669,6.641-1.669c4.427,0,5.979,1.708,5.979,5.553v14.253h-2.524
			l-0.508-1.631c-1.319,1.165-2.985,2.021-4.814,2.021c-3.842,0-6.794-2.447-6.794-6.098c0-3.729,3.186-5.67,6.178-5.67h5.432
			v-2.796c0-2.641-1.237-2.913-2.909-2.913c-2.836,0-6.21,0.933-6.21,0.933L434.175,856.266z M443.762,865.743h-4.968
			c-2.912,0-3.611,1.283-3.611,2.953c0,1.902,1.36,3.378,3.726,3.378c2.445,0,4.854-2.059,4.854-4.194V865.743L443.762,865.743z"/>
		<path fill="#7F8C8D" d="M452.511,856.266c0,0,3.375-1.669,6.639-1.669c4.426,0,5.979,1.708,5.979,5.553v14.253h-2.524
			l-0.504-1.631c-1.319,1.165-2.989,2.021-4.818,2.021c-3.843,0-6.795-2.447-6.795-6.098c0-3.729,3.186-5.67,6.177-5.67h5.437
			v-2.796c0-2.641-1.241-2.913-2.91-2.913c-2.839,0-6.217,0.933-6.217,0.933L452.511,856.266z M462.1,865.743h-4.968
			c-2.912,0-3.614,1.283-3.614,2.953c0,1.902,1.36,3.378,3.728,3.378c2.443,0,4.854-2.059,4.854-4.194V865.743z"/>
		<path fill="#7F8C8D" d="M484.318,855.762l-6.873,18.641h-3.032l-6.95-18.641l2.721-0.777l5.707,15.34l5.671-15.34L484.318,855.762
			z"/>
		<path fill="#7F8C8D" d="M501.371,871.025v2.173c0,0-3.414,1.595-6.177,1.595c-4.93,0-8.155-3.652-8.155-10.061
			c0-6.367,3.032-10.097,7.963-10.097c8.311,0,7.146,11.146,7.146,11.146h-12.077c0.232,3.571,1.94,6.292,5.047,6.292
			C498.032,872.074,501.371,871.025,501.371,871.025z M499.428,863.062c-0.192-3.843-2.251-5.708-4.428-5.708
			c-2.952,0-4.545,2.098-4.892,5.708H499.428z"/>
		<path fill="#7F8C8D" d="M520.871,874.403h-2.522l-0.506-1.514c-1.17,0.97-2.836,1.903-5.166,1.903
			c-3.807,0-7.147-3.652-7.147-10.061c0-5.979,3.031-10.136,7.961-10.136c1.787,0,3.301,0.933,4.353,1.864v-11.186h3.028V874.403z
			 M517.843,870.442v-11.457c-0.899-0.776-2.373-1.669-4.353-1.669c-2.988,0-5.008,3.417-4.93,7.417
			c-0.078,3.846,1.16,7.341,4.777,7.341C514.968,872.074,516.638,871.257,517.843,870.442z"/>
		<path fill="#7F8C8D" d="M534.585,857.316c-2.369,0-4.47,1.049-5.864,1.942v15.145h-3.031v-19.418h3.031v1.864
			c1.358-1.047,3.379-2.252,5.864-2.252V857.316z"/>
		<path fill="#7F8C8D" d="M538.158,856.266c0,0,3.383-1.669,6.643-1.669c4.427,0,5.979,1.708,5.979,5.553v14.253h-2.521
			l-0.505-1.631c-1.323,1.165-2.99,2.021-4.813,2.021c-3.848,0-6.798-2.447-6.798-6.098c0-3.729,3.182-5.67,6.175-5.67h5.438v-2.796
			c0-2.641-1.243-2.913-2.912-2.913c-2.835,0-6.214,0.933-6.214,0.933L538.158,856.266z M547.752,865.743h-4.974
			c-2.911,0-3.606,1.283-3.606,2.953c0,1.902,1.355,3.378,3.725,3.378c2.448,0,4.856-2.059,4.856-4.194L547.752,865.743
			L547.752,865.743z"/>
		<path fill="#7F8C8D" d="M554.281,871.723H557v2.718h-2.72V871.723z"/>
	</g>
	<g display="inline">
		<rect x="-9.576" y="317.938" fill="#2C3E50" width="661.151" height="212.216"/>
		<rect x="-9.576" y="370.045" fill="none" width="661.151" height="101.912"/>
		<text transform="matrix(1 0 0 1 118.4285 407.5447)" fill="#FFFFFF" font-family="'escreen'" font-size="50">THE PLEASURE OF</text>
		<text transform="matrix(1 0 0 1 92.4285 467.5447)" fill="#FFFFFF" font-family="'escreen'" font-size="50" letter-spacing="-1">R</text>
		<text transform="matrix(1 0 0 1 122.3274 467.5447)" fill="#FFFFFF" font-family="'escreen'" font-size="50">EADING ON </text>
		<text transform="matrix(1 0 0 1 375.1223 467.5447)" fill="#FFFFFF" font-family="'escreen'" font-size="50" letter-spacing="-1">S</text>
		<text transform="matrix(1 0 0 1 402.9729 467.5447)" fill="#FFFFFF" font-family="'escreen'" font-size="50">CREEN</text>
	</g>
	<g display="inline">
		<g>
			<g>
				<path fill="#2C3E50" d="M85,88.489h39.343l-1.004,7.026H92.828v20.975h27.498l-1.002,7.024H92.828v25.691h31.515l-1.004,7.024
					H85V88.489z"/>
				<path fill="#2C3E50" d="M153.347,146.094c0,0,9.032,4.115,18.968,4.115c9.834,0,16.561-3.514,16.561-11.642
					c0-18.165-36.431-9.435-36.431-33.821c0-11.941,11.841-17.262,23.984-17.262c9.234,0,17.563,3.714,17.563,3.714l-2.01,6.222
					c0,0-7.426-2.909-15.653-2.909c-9.135-0.102-16.058,2.709-16.058,10.437c0,16.258,36.43,8.632,36.43,33.218
					c0,13.248-11.24,19.068-24.487,19.068c-12.946,0-21.076-5.219-21.076-5.219L153.347,146.094z"/>
				<path fill="#2C3E50" d="M264.447,98.325c0,0-7.022-3.812-15.656-3.812c-11.34,0-18.867,11.641-18.665,27.799
					c-0.202,13.85,6.824,27.899,18.866,27.899c9.635,0,18.064-5.22,18.064-5.22v7.527c0,0-8.028,4.717-17.663,4.717
					c-16.357,0-27.096-12.646-27.096-34.924c0-22.18,9.933-34.824,26.493-34.824c11.238,0,17.664,5.219,17.664,5.219L264.447,98.325
					z"/>
				<path fill="#2C3E50" d="M323.057,127.228l8.633,15.454c4.215,8.028,10.134,8.229,10.134,8.229l-1.201,6.222
					c0,0-8.833,2.309-15.458-10.236l-10.436-18.667h-12.545v28h-7.829V88.289h21.777c11.141,0,20.673,6.522,20.673,19.87
					C336.806,118.496,330.988,124.92,323.057,127.228z M314.527,95.313h-12.343v25.893h12.343c11.342,0,14.452-5.72,14.452-13.047
					C328.979,100.733,325.868,95.313,314.527,95.313z"/>
				<path fill="#2C3E50" d="M370.129,88.489h39.341l-1.004,7.026h-30.509v20.975h27.496l-1.002,7.024h-26.494v25.691h31.513
					l-1.004,7.024H370.13L370.129,88.489L370.129,88.489z"/>
				<path fill="#2C3E50" d="M439.278,88.489h39.341l-1.003,7.026h-30.509v20.975h27.496l-1.002,7.024h-26.494v25.691h31.512
					l-1.003,7.024h-38.338V88.489z"/>
				<path fill="#2C3E50" d="M515.854,102.339v53.892h-7.426V89.493l7.426-1.004l33.32,53.19v-53.19H557v67.742h-7.827
					L515.854,102.339z"/>
			</g>
			<g>
				<g>
					<path fill="#2C3E50" d="M87.083,247.754c0,0,8.521,3.883,17.896,3.883c9.278,0,15.622-3.314,15.622-10.984
						c0-17.138-34.371-8.901-34.371-31.91c0-11.268,11.173-16.287,22.63-16.287c8.711,0,16.57,3.503,16.57,3.503l-1.894,5.871
						c0,0-7.007-2.746-14.771-2.746c-8.616-0.095-15.149,2.557-15.149,9.849c0,15.339,34.371,8.143,34.371,31.342
						c0,12.499-10.604,17.991-23.104,17.991C92.669,258.265,85,253.34,85,253.34L87.083,247.754z"/>
					<path fill="#2C3E50" d="M167.376,193.403l23.86,63.914h-7.953l-5.87-15.813h-28.218l-5.965,15.813h-7.858l23.86-62.968
						L167.376,193.403z M151.658,234.876h23.388l-11.552-31.342L151.658,234.876z"/>
					<path fill="#2C3E50" d="M208.183,206.47v50.848h-7.006V194.35l7.006-0.946l31.438,50.184v-50.184h7.386v63.914h-7.386
						L208.183,206.47z"/>
					<path fill="#2C3E50" d="M263.29,247.754c0,0,8.521,3.883,17.896,3.883c9.278,0,15.623-3.314,15.623-10.984
						c0-17.138-34.371-8.901-34.371-31.91c0-11.268,11.173-16.287,22.63-16.287c8.712,0,16.57,3.503,16.57,3.503l-1.895,5.871
						c0,0-7.007-2.746-14.771-2.746c-8.616-0.095-15.15,2.557-15.15,9.849c0,15.339,34.371,8.143,34.371,31.342
						c0,12.499-10.604,17.991-23.103,17.991c-12.215,0-19.884-4.925-19.884-4.925L263.29,247.754z"/>
					<path fill="#2C3E50" d="M337.142,193.403h47.438v6.628h-20.83v57.286h-7.291v-57.286h-19.317V193.403L337.142,193.403z"/>
					<path fill="#2C3E50" d="M399.255,193.403h37.118l-0.947,6.628H406.64v19.79h25.945l-0.947,6.628H406.64v24.24h29.731
						l-0.946,6.628h-36.171L399.255,193.403L399.255,193.403z"/>
					<path fill="#2C3E50" d="M491.289,257.317l-18.086-27.365l-18.085,27.365h-8.333l22.251-33.709l-19.314-29.259l7.574-0.946
						l16.003,24.24l15.718-24.24l8.143,0.946l-19.694,29.447l22.156,33.521H491.289z"/>
					<path fill="#2C3E50" d="M509.561,193.403H557v6.628h-20.832v57.286h-7.291v-57.286h-19.316V193.403L509.561,193.403z"/>
				</g>
			</g>
		</g>
	</g>
</g>
<g id="Layer_3">
	<g>
		<g>
			<g>
				<path fill="#2C3E50" d="M86,87.321h39.17l-0.994,6.992h-30.38v20.889h27.378l-0.995,6.993H93.796v25.583h31.374l-0.994,6.996H86
					V87.321z"/>
				<path fill="#2C3E50" d="M154.057,144.68c0,0,8.995,4.099,18.885,4.099c9.798,0,16.493-3.5,16.493-11.592
					c0-18.09-36.28-9.396-36.28-33.68c0-11.891,11.793-17.188,23.888-17.188c9.193,0,17.487,3.698,17.487,3.698l-2,6.195
					c0,0-7.395-2.896-15.592-2.896c-9.092-0.101-15.986,2.696-15.986,10.393c0,16.188,36.273,8.593,36.273,33.077
					c0,13.191-11.192,18.986-24.382,18.986c-12.892,0-20.985-5.195-20.985-5.195L154.057,144.68z"/>
				<path fill="#2C3E50" d="M264.684,97.111c0,0-6.993-3.795-15.59-3.795c-11.292,0-18.787,11.591-18.588,27.68
					c-0.199,13.791,6.794,27.782,18.792,27.782c9.593,0,17.988-5.198,17.988-5.198v7.495c0,0-7.998,4.696-17.594,4.696
					c-16.287,0-26.976-12.589-26.976-34.775c0-22.084,9.889-34.677,26.377-34.677c11.193,0,17.591,5.199,17.591,5.199
					L264.684,97.111z"/>
				<path fill="#2C3E50" d="M323.049,125.892l8.594,15.391c4.194,7.994,10.094,8.194,10.094,8.194l-1.2,6.195
					c0,0-8.795,2.299-15.393-10.191l-10.391-18.588h-12.49v27.882h-7.796V87.12h21.682c11.096,0,20.59,6.496,20.59,19.786
					C336.74,117.2,330.944,123.594,323.049,125.892z M314.556,94.115h-12.292v25.782h12.292c11.291,0,14.388-5.696,14.388-12.992
					C328.944,99.513,325.847,94.115,314.556,94.115z"/>
				<path fill="#2C3E50" d="M369.921,87.321h39.171l-0.995,6.992h-30.381v20.889h27.381l-1.003,6.993h-26.377v25.583h31.376
					l-0.995,6.996h-38.176L369.921,87.321L369.921,87.321z"/>
				<path fill="#2C3E50" d="M438.777,87.321h39.171l-0.997,6.992h-30.378v20.889h27.375l-0.996,6.993h-26.38v25.583h31.375
					l-0.997,6.996h-38.174L438.777,87.321L438.777,87.321z"/>
				<path fill="#2C3E50" d="M515.024,101.111v53.663h-7.394V88.318l7.394-0.998l33.178,52.965V87.321H556v67.454h-7.799
					L515.024,101.111z"/>
			</g>
		</g>
		<g>
			<path fill="#939598" d="M87.324,221.604c0,0,5.415,2.469,11.375,2.469c5.894,0,9.927-2.107,9.927-6.983
				c0-10.891-21.846-5.655-21.846-20.277c0-7.16,7.104-10.351,14.381-10.351c5.54,0,10.534,2.227,10.534,2.227l-1.201,3.729
				c0,0-4.454-1.746-9.392-1.746c-5.474-0.058-9.63,1.625-9.63,6.26c0,9.75,21.845,5.174,21.845,19.919
				c0,7.942-6.739,11.433-14.684,11.433c-7.762,0-12.635-3.128-12.635-3.128L87.324,221.604z"/>
			<path fill="#939598" d="M159.427,187.062l15.163,40.619h-5.055l-3.729-10.05h-17.935l-3.794,10.05h-4.989l15.162-40.019
				L159.427,187.062z M149.436,213.419H164.3l-7.342-19.92L149.436,213.419z"/>
			<path fill="#939598" d="M206.433,195.367v32.314h-4.454v-40.019l4.454-0.602l19.978,31.895v-31.895h4.691v40.619h-4.691
				L206.433,195.367z"/>
			<path fill="#939598" d="M262.527,221.604c0,0,5.417,2.469,11.375,2.469c5.895,0,9.927-2.107,9.927-6.983
				c0-10.891-21.845-5.655-21.845-20.277c0-7.16,7.104-10.351,14.386-10.351c5.532,0,10.527,2.227,10.527,2.227l-1.2,3.729
				c0,0-4.452-1.746-9.392-1.746c-5.474-0.058-9.631,1.625-9.631,6.26c0,9.75,21.846,5.174,21.846,19.919
				c0,7.942-6.734,11.433-14.679,11.433c-7.766,0-12.639-3.128-12.639-3.128L262.527,221.604z"/>
			<path fill="#939598" d="M317.506,204.85h7.167v8.472h-7.167V204.85z"/>
			<path fill="#939598" d="M353.05,187.062h30.15v4.211h-13.237v36.408h-4.633v-36.408h-12.28V187.062z"/>
			<path fill="#939598" d="M413.602,187.062h23.588l-0.604,4.211h-18.289v12.578h16.486l-0.602,4.213h-15.886v15.404h18.894
				l-0.604,4.213h-22.983L413.602,187.062L413.602,187.062z"/>
			<path fill="#939598" d="M493.163,227.682l-11.492-17.393l-11.496,17.393h-5.293l14.141-21.425l-12.281-18.594l4.815-0.602
				l10.174,15.403l9.986-15.403l5.176,0.602l-12.514,18.716l14.076,21.302L493.163,227.682L493.163,227.682z"/>
			<path fill="#939598" d="M525.849,187.062H556v4.211h-13.242v36.408h-4.633v-36.408H525.85L525.849,187.062L525.849,187.062z"/>
		</g>
	</g>
	<g>
		<g>
			<path d="M86,592.179h30.675l-0.79,5.477H92.103v16.354h21.44l-0.782,5.478H92.103v20.028h24.573l-0.79,5.477H86V592.179z"/>
			<path d="M129.193,591.394h6.104v48.122h23.783v5.477h-29.886L129.193,591.394L129.193,591.394z"/>
			<path d="M187.245,592.179h6.101v52.812h-6.101V592.179z"/>
			<path d="M213.225,602.977v42.016h-5.789v-52.032l5.789-0.781l25.967,41.47v-41.47h6.115v52.812h-6.115L213.225,602.977z"/>
			<path d="M286.848,622.929l6.104-1.567v21.52c0,0-7.429,2.894-15.339,2.894c-12.752,0-21.273-9.854-21.273-27.229
				c0-17.292,7.897-27.151,20.806-27.151c9.235,0,15.339,4.07,15.339,4.07l-1.562,4.382c0,0-6.648-2.974-13.776-2.974
				c-8.835,0-14.704,9.076-14.548,21.674c-0.156,10.404,5.321,21.752,14.704,21.752c3.525,0,6.729-0.548,9.548-1.327
				L286.848,622.929L286.848,622.929z"/>
			<path d="M306.256,592.179h30.67l-0.781,5.477H312.36v16.354h21.439l-0.79,5.478H312.36v20.028h24.566l-0.781,5.477h-29.889
				V592.179L306.256,592.179z"/>
			<path d="M355.229,602.977v42.016h-5.79v-52.032l5.79-0.781l25.981,41.47v-41.47h6.103v52.812h-6.103L355.229,602.977z"/>
			<path d="M401.401,592.179h6.104v52.812h-6.104V592.179z"/>
			<path d="M439.497,591.394c12.759,0,20.895,9.859,20.895,27.151c0,17.212-8.136,27.229-20.895,27.229
				c-12.907,0-20.963-10.017-20.963-27.229C418.534,601.254,426.59,591.394,439.497,591.394z M439.497,596.872
				c-9.617,0-14.938,7.666-14.859,21.674c-0.079,14.551,5.242,21.752,14.859,21.752c9.549,0,14.715-7.201,14.79-21.752
				C454.211,604.538,449.046,596.872,439.497,596.872z"/>
			<path d="M471.422,637.09c0,0,7.04,3.208,14.791,3.208c7.665,0,12.905-2.738,12.905-9.075c0-14.162-28.397-7.357-28.397-26.372
				c0-9.31,9.234-13.457,18.698-13.457c7.201,0,13.694,2.896,13.694,2.896l-1.562,4.851c0,0-5.79-2.269-12.215-2.269
				c-7.114-0.08-12.515,2.11-12.515,8.137c0,12.677,28.401,6.729,28.401,25.902c0,10.323-8.757,14.863-19.086,14.863
				c-10.098,0-16.433-4.065-16.433-4.065L471.422,637.09z"/>
			<path d="M535.115,591.394c12.753,0,20.886,9.859,20.886,27.151c0,17.212-8.132,27.229-20.886,27.229
				c-12.915,0-20.97-10.017-20.97-27.229C514.145,601.254,522.2,591.394,535.115,591.394z M535.115,596.872
				c-9.624,0-14.945,7.666-14.866,21.674c-0.08,14.551,5.243,21.752,14.866,21.752c9.54,0,14.708-7.201,14.784-21.752
				C549.823,604.538,544.655,596.872,535.115,596.872z"/>
		</g>
		<g>
			<path d="M134.618,781.821H95.858v40.405H86v-85.233h9.857v35.989h38.761v-35.989h9.847v85.233h-9.847V781.821z"/>
			<path d="M167.2,736.993h9.844v85.233H167.2V736.993z"/>
			<path d="M199.769,736.993h27.521c20.345,0,32.589,14.646,32.589,42.298c0,26.771-13.263,42.937-33.34,42.937h-26.771V736.993z
				 M227.04,813.387c14.662,0,22.739-18.059,22.739-34.097c0-19.946-8.717-33.459-22.488-33.459h-17.679v67.556H227.04
				L227.04,813.387z"/>
			<path d="M308.615,736.993l31.833,85.233H329.84l-7.832-21.089h-37.626l-7.96,21.089h-10.48l31.821-83.973L308.615,736.993z
				 M287.662,792.299h31.191l-15.407-41.795L287.662,792.299z"/>
			<path d="M353.706,735.726h9.85v77.662h38.389v8.839h-48.238V735.726z"/>
			<path d="M462.041,786.62l9.854-2.529v34.729c0,0-12.002,4.669-24.751,4.669c-20.578,0-34.343-15.904-34.343-43.942
				c0-27.907,12.744-43.819,33.587-43.819c14.891,0,24.736,6.568,24.736,6.568l-2.518,7.071c0,0-10.727-4.799-22.219-4.799
				c-14.273,0-23.743,14.648-23.49,34.979c-0.253,16.792,8.587,35.104,23.743,35.104c5.671,0,10.858-0.883,15.399-2.142V786.62z"/>
			<path d="M522.277,735.726c20.573,0,33.724,15.912,33.724,43.819c0,27.776-13.15,43.942-33.724,43.942
				c-20.834,0-33.85-16.166-33.85-43.942C488.427,751.637,501.443,735.726,522.277,735.726z M522.277,744.567
				c-15.543,0-24.119,12.372-23.985,34.979c-0.134,23.482,8.442,35.104,23.985,35.104c15.407,0,23.746-11.621,23.865-35.104
				C546.022,756.939,537.684,744.567,522.277,744.567z"/>
		</g>
		<g>
			<path fill="#939598" d="M106.007,676.362c0,0-3.336-1.812-7.429-1.812c-5.387,0-8.953,5.522-8.858,13.197
				c-0.095,6.572,3.236,13.24,8.954,13.24c4.58,0,8.568-2.472,8.568-2.472v3.569c0,0-3.799,2.238-8.374,2.238
				c-7.771,0-12.869-6.001-12.869-16.576c0-10.532,4.71-16.532,12.578-16.532c5.334,0,8.379,2.48,8.379,2.48L106.007,676.362z"/>
			<path fill="#939598" d="M121.399,679.552c6.052,0,9.868,4.524,9.868,12.385c0,7.812-3.816,12.389-9.868,12.389
				c-6.048,0-9.862-4.574-9.862-12.389C111.536,684.077,115.351,679.552,121.399,679.552z M121.399,682.886
				c-4.147,0-6.186,3.383-6.143,9.051c-0.043,5.67,1.995,9.053,6.143,9.053c4.148,0,6.243-3.382,6.145-9.053
				C127.642,686.269,125.547,682.886,121.399,682.886z"/>
			<path fill="#939598" d="M137.22,680.027h3.72v1.667c1.862-1.097,4.344-2.143,7.194-2.143c2.384,0,4.438,0.958,5.66,3.003
				c1.861-1.288,4.92-3.003,8.532-3.003c3.814,0,6.858,2.382,6.858,7.763v16.535h-3.705v-15.293c0-3.434-1.044-5.67-4.146-5.67
				c-2.812,0-5.387,1.145-6.629,1.764c0.192,0.812,0.29,1.667,0.29,2.665v16.535h-3.717v-15.293c0-3.434-1.05-5.67-4.149-5.67
				c-2.465,0-4.849,0.909-6.188,1.577v19.387h-3.72V680.027L137.22,680.027z"/>
			<path fill="#939598" d="M178.727,702.277v9.956l-3.718,1.146v-33.352h3.1l0.619,1.907c1.667-1.191,3.995-2.382,7.057-2.382
				c4.672,0,7.81,4.479,7.81,12.339c0,7.335-3.722,12.435-9.766,12.435C181.734,704.325,179.967,703.325,178.727,702.277z
				 M178.727,684.602v14.534c1.092,0.902,2.809,1.854,5.101,1.854c3.664,0,6.143-4.188,6.044-9.099
				c0.099-4.712-1.433-9.005-5.854-9.005C182.103,682.886,180.162,683.746,178.727,684.602z"/>
			<path fill="#939598" d="M215.935,703.85h-3.24l-0.471-1.902c-1.86,1.283-4.146,2.377-6.763,2.377
				c-3.816,0-6.863-2.377-6.863-7.765v-16.533h3.722v15.294c0,3.432,1.049,5.668,4.134,5.668c2.243,0,4.396-1.093,5.771-1.996
				v-18.966h3.711V703.85z"/>
			<path fill="#939598" d="M238.287,699.702v2.675c0,0-4.189,1.949-7.583,1.949c-6.046,0-10.002-4.479-10.002-12.338
				c0-7.811,3.722-12.385,9.77-12.385c10.198,0,8.765,13.673,8.765,13.673h-14.812c0.29,4.383,2.38,7.715,6.201,7.715
				C234.191,700.989,238.287,699.702,238.287,699.702z M235.9,689.942c-0.236-4.721-2.753-7.008-5.429-7.008
				c-3.624,0-5.565,2.576-6.002,7.008H235.9z"/>
			<path fill="#939598" d="M243.29,699.896c0,0,3.102,1.239,6.529,1.239c3.336,0,5.674-1.386,5.674-3.908
				c0-5.763-12.822-2.381-12.822-11.098c0-4.721,4.436-6.578,8.954-6.578c3.431,0,6.241,1.336,6.241,1.336l-0.66,2.715
				c0,0-2.617-0.854-5.581-0.854c-2.811,0-5.523,0.996-5.523,3.381c0,5.188,12.869,2.144,12.869,10.905
				c0,4.912-4.093,7.289-9.151,7.289c-4.379,0-7.286-1.757-7.286-1.757L243.29,699.896z"/>
			<path fill="#939598" d="M264.018,680.027h2.106l0.469-4.042h3.236v4.042h6.147l-0.952,3.103h-5.195v14.768
				c0,2.143,0.676,3.093,2.636,3.093c2.188,0,4.42-0.231,4.42-0.231l0.329,2.567c0,0-2.848,1-5.192,1
				c-5.1,0-5.897-2.764-5.897-6.332v-14.863h-2.106V680.027z"/>
			<path fill="#939598" d="M290.418,679.552c6.048,0,9.864,4.524,9.864,12.385c0,7.812-3.816,12.389-9.864,12.389
				c-6.047,0-9.866-4.574-9.866-12.389C280.552,684.077,284.371,679.552,290.418,679.552z M290.418,682.886
				c-4.148,0-6.187,3.383-6.146,9.051c-0.04,5.67,1.998,9.053,6.146,9.053c4.146,0,6.241-3.382,6.146-9.053
				C296.659,686.269,294.564,682.886,290.418,682.886z"/>
			<path fill="#939598" d="M319.576,702.277v9.956l-3.703,1.146v-33.352h3.084l0.619,1.907c1.669-1.191,4.011-2.382,7.057-2.382
				c4.67,0,7.812,4.479,7.812,12.339c0,7.335-3.716,12.435-9.77,12.435C322.582,704.325,320.818,703.325,319.576,702.277z
				 M319.576,684.602v14.534c1.104,0.902,2.814,1.854,5.101,1.854c3.681,0,6.145-4.188,6.054-9.099
				c0.091-4.712-1.423-9.005-5.861-9.005C322.966,682.886,321.011,683.746,319.576,684.602z"/>
			<path fill="#939598" d="M348.602,679.552c6.046,0,9.863,4.524,9.863,12.385c0,7.812-3.817,12.389-9.863,12.389
				c-6.049,0-9.868-4.574-9.868-12.389C338.734,684.077,342.553,679.552,348.602,679.552z M348.602,682.886
				c-4.147,0-6.188,3.383-6.15,9.051c-0.038,5.67,2.002,9.053,6.15,9.053c4.143,0,6.237-3.382,6.143-9.053
				C354.839,686.269,352.744,682.886,348.602,682.886z"/>
			<path fill="#939598" d="M374.479,682.886c-2.906,0-5.484,1.29-7.194,2.383v18.581h-3.718v-23.822h3.718v2.286
				c1.671-1.279,4.136-2.762,7.194-2.762V682.886z"/>
			<path fill="#939598" d="M406.584,699.702v2.675c0,0-4.188,1.949-7.562,1.949c-6.056,0-10.01-4.479-10.01-12.338
				c0-7.811,3.714-12.385,9.76-12.385c10.198,0,8.772,13.673,8.772,13.673h-14.818c0.29,4.383,2.382,7.715,6.197,7.715
				C402.495,700.989,406.584,699.702,406.584,699.702z M404.204,689.942c-0.233-4.721-2.757-7.008-5.431-7.008
				c-3.616,0-5.564,2.576-5.993,7.008H404.204z"/>
			<path fill="#939598" d="M422.753,703.754c0,0-2.439,0.571-4.342,0.571c-4.86,0-5.907-3.141-5.907-6.332
				c0-2.245,0-29.872,0-29.872h3.718v29.775c0,2.097,0.812,3.093,2.147,3.093c1.477,0,3.902-0.187,3.902-0.187L422.753,703.754z"/>
			<path fill="#939598" d="M437.607,671.692h4.055v4.049h-4.055V671.692z M437.766,680.027h3.715v23.822h-3.715V680.027z"/>
			<path fill="#939598" d="M457.728,703.754c0,0-2.439,0.571-4.341,0.571c-4.863,0-5.908-3.141-5.908-6.332
				c0-2.245,0-29.872,0-29.872h3.719v29.775c0,2.097,0.813,3.093,2.147,3.093c1.476,0,3.903-0.187,3.903-0.187L457.728,703.754z"/>
			<path fill="#939598" d="M479.358,703.85h-3.247l-0.469-1.902c-1.86,1.283-4.146,2.377-6.763,2.377
				c-3.817,0-6.865-2.377-6.865-7.765v-16.533h3.722v15.294c0,3.432,1.048,5.668,4.131,5.668c2.248,0,4.393-1.093,5.775-1.996
				v-18.966h3.716V703.85z"/>
			<path fill="#939598" d="M485.454,699.896c0,0,3.103,1.239,6.532,1.239c3.334,0,5.662-1.386,5.662-3.908
				c0-5.763-12.812-2.381-12.812-11.098c0-4.721,4.438-6.578,8.952-6.578c3.435,0,6.243,1.336,6.243,1.336l-0.661,2.715
				c0,0-2.616-0.854-5.582-0.854c-2.807,0-5.521,0.996-5.521,3.381c0,5.188,12.87,2.144,12.87,10.905
				c0,4.912-4.106,7.289-9.149,7.289c-4.38,0-7.287-1.757-7.287-1.757L485.454,699.896z"/>
			<path fill="#939598" d="M506.183,680.027h2.097l0.481-4.042h3.235v4.042h6.148l-0.954,3.103h-5.194v14.768
				c0,2.143,0.672,3.093,2.619,3.093c2.188,0,4.438-0.231,4.438-0.231l0.327,2.567c0,0-2.849,1-5.192,1
				c-5.098,0-5.908-2.764-5.908-6.332v-14.863h-2.097L506.183,680.027L506.183,680.027z"/>
			<path fill="#939598" d="M535.163,682.886c-2.906,0-5.485,1.29-7.197,2.383v18.581h-3.716v-23.822h3.716v2.286
				c1.669-1.279,4.136-2.762,7.197-2.762V682.886z"/>
			<path fill="#939598" d="M554.979,699.702v2.675c0,0-4.188,1.949-7.579,1.949c-6.048,0-10.002-4.479-10.002-12.338
				c0-7.811,3.718-12.385,9.769-12.385c10.197,0,8.765,13.673,8.765,13.673h-14.814c0.291,4.383,2.384,7.715,6.185,7.715
				C550.884,700.989,554.979,699.702,554.979,699.702z M552.597,689.942c-0.237-4.721-2.757-7.008-5.432-7.008
				c-3.625,0-5.57,2.576-6.006,7.008H552.597z"/>
		</g>
		<g>
			<path fill="#939598" d="M97.557,870.776l7.546-22.043h4.062v26.104h-2.863l-0.044-20.301l-7.27,20.301h-2.816l-7.317-20.301
				v20.301H86v-25.719l4.063-0.385L97.557,870.776z"/>
			<path fill="#939598" d="M115.042,848.733h3.289v3.287h-3.289V848.733z M115.168,855.5h3.011v19.337h-3.011V855.5z"/>
			<path fill="#939598" d="M135.276,857.048l0.502-1.548h2.507v17.4c0,7.041-1.581,10.055-7.193,10.055
				c-3.865,0-6.5-1.928-6.5-1.928l0.395-1.896c0,0,2.551,1.118,6.105,1.118c3.488,0,4.105-2.242,4.184-6.649
				c-1.164,0.85-2.786,1.622-5.066,1.622c-3.791,0-7.115-3.636-7.115-10.016c0-5.955,3.011-10.094,7.917-10.094
				C132.76,855.113,134.223,856.08,135.276,857.048z M135.276,871.163v-11.559c-0.929-0.817-2.326-1.784-4.266-1.784
				c-2.971,0-4.986,3.404-4.906,7.389c-0.08,3.829,1.164,7.307,4.763,7.307C132.445,872.514,134.077,871.821,135.276,871.163z"/>
			<path fill="#939598" d="M157.087,874.837h-2.628l-0.391-1.544c-1.515,1.041-3.366,1.93-5.49,1.93
				c-3.093,0-5.573-1.93-5.573-6.303V855.5h3.021v12.413c0,2.785,0.854,4.602,3.365,4.602c1.812,0,3.559-0.887,4.677-1.621v-15.396
				h3.019L157.087,874.837L157.087,874.837z"/>
			<path fill="#939598" d="M175.231,871.469v2.171c0,0-3.409,1.583-6.151,1.583c-4.908,0-8.118-3.636-8.118-10.015
				c0-6.342,3.014-10.054,7.926-10.054c8.277,0,7.116,11.099,7.116,11.099h-12.028c0.229,3.558,1.928,6.262,5.027,6.262
				C171.897,872.514,175.231,871.469,175.231,871.469z M173.298,863.548c-0.195-3.831-2.25-5.688-4.411-5.688
				c-2.94,0-4.527,2.091-4.873,5.688H173.298z"/>
			<path fill="#939598" d="M188.344,874.759c0,0-1.971,0.464-3.524,0.464c-3.938,0-4.789-2.55-4.789-5.141
				c0-1.822,0-24.246,0-24.246h3.012v24.169c0,1.701,0.659,2.51,1.748,2.51c1.194,0,3.161-0.151,3.161-0.151L188.344,874.759z"/>
			<path fill="#939598" d="M215.031,874.837h-2.518l-0.504-1.511c-1.166,0.967-2.815,1.896-5.143,1.896
				c-3.795,0-7.115-3.636-7.115-10.016c0-5.955,3.021-10.094,7.93-10.094c1.78,0,3.289,0.928,4.327,1.857v-11.135h3.021v29.001
				H215.031z M212.01,870.894v-11.408c-0.885-0.778-2.359-1.667-4.327-1.667c-2.977,0-4.987,3.404-4.909,7.388
				c-0.079,3.83,1.15,7.308,4.754,7.308C209.148,872.514,210.815,871.706,212.01,870.894z"/>
			<path fill="#939598" d="M233.25,871.469v2.171c0,0-3.407,1.583-6.148,1.583c-4.911,0-8.123-3.636-8.123-10.015
				c0-6.342,3.013-10.054,7.918-10.054c8.279,0,7.127,11.099,7.127,11.099h-12.032c0.234,3.558,1.934,6.262,5.031,6.262
				C229.92,872.514,233.25,871.469,233.25,871.469z M231.316,863.548c-0.201-3.831-2.244-5.688-4.419-5.688
				c-2.929,0-4.514,2.091-4.859,5.688H231.316z"/>
			<path fill="#939598" d="M262.528,852.524c0,0-2.707-1.471-6.031-1.471c-4.37,0-7.269,4.483-7.191,10.713
				c-0.077,5.335,2.626,10.748,7.271,10.748c3.714,0,6.958-2.007,6.958-2.007v2.896c0,0-3.099,1.818-6.809,1.818
				c-6.299,0-10.437-4.872-10.437-13.456c0-8.55,3.822-13.42,10.207-13.42c4.335,0,6.805,2.014,6.805,2.014L262.528,852.524z"/>
			<path fill="#939598" d="M281.098,871.469v2.171c0,0-3.402,1.583-6.155,1.583c-4.906,0-8.118-3.636-8.118-10.015
				c0-6.342,3.019-10.054,7.931-10.054c8.275,0,7.116,11.099,7.116,11.099h-12.028c0.224,3.558,1.934,6.262,5.025,6.262
				C277.77,872.514,281.098,871.469,281.098,871.469z M279.161,863.548c-0.194-3.831-2.246-5.688-4.407-5.688
				c-2.941,0-4.53,2.091-4.875,5.688H279.161z"/>
			<path fill="#939598" d="M294.754,857.819c-2.359,0-4.45,1.047-5.853,1.935v15.083h-3.007V855.5h3.007v1.854
				c1.354-1.038,3.368-2.242,5.853-2.242V857.819z"/>
			<path fill="#939598" d="M314.24,856.277l-6.845,18.56h-3.01l-6.921-18.56l2.705-0.778l5.685,15.277l5.645-15.277L314.24,856.277z
				"/>
			<path fill="#939598" d="M316.605,857.048c0,0,3.367-1.661,6.616-1.661c4.41,0,5.957,1.702,5.957,5.531v14.193h-2.521
				l-0.504-1.551v-0.077c-1.307,1.163-2.971,2.014-4.788,2.014c-3.833,0-6.771-2.438-6.771-6.073c0-3.715,3.175-5.647,6.149-5.647
				h5.41v-2.787c0-2.626-1.229-2.895-2.894-2.895c-2.823,0-6.187,0.928-6.187,0.928L316.605,857.048z M326.153,866.481h-4.943
				c-2.908,0-3.598,1.28-3.598,2.941c0,1.896,1.354,3.366,3.712,3.366c2.439,0,4.829-2.053,4.829-4.179V866.481L326.153,866.481z"/>
			<path fill="#939598" d="M333.823,855.5h3.016v1.588c1.546-0.968,3.671-1.976,6.187-1.976c3.093,0,5.571,1.935,5.571,6.302v13.422
				h-3.021v-12.414c0-2.786-0.849-4.604-3.366-4.604c-2.284,0-4.365,0.93-5.37,1.433v15.585h-3.016V855.5L333.823,855.5z"/>
			<path fill="#939598" d="M352.844,855.5h1.702l0.393-3.281h2.626v3.281h4.991l-0.771,2.518h-4.219v11.987
				c0,1.738,0.545,2.51,2.126,2.51c1.777,0,3.601-0.189,3.601-0.189l0.269,2.085c0,0-2.318,0.812-4.215,0.812
				c-4.142,0-4.8-2.243-4.8-5.141v-12.064h-1.702V855.5L352.844,855.5z"/>
			<path fill="#939598" d="M380.541,871.469v2.171c0,0-3.398,1.583-6.152,1.583c-4.907,0-8.118-3.636-8.118-10.015
				c0-6.342,3.02-10.054,7.93-10.054c8.278,0,7.113,11.099,7.113,11.099h-12.024c0.232,3.558,1.934,6.262,5.019,6.262
				C377.217,872.514,380.541,871.469,380.541,871.469z M378.607,863.548c-0.19-3.831-2.238-5.688-4.407-5.688
				c-2.943,0-4.533,2.091-4.876,5.688H378.607z"/>
			<path fill="#939598" d="M384.604,871.628c0,0,2.519,1.006,5.304,1.006c2.705,0,4.591-1.125,4.591-3.172
				c0-4.679-10.396-1.934-10.396-9.009c0-3.832,3.6-5.34,7.267-5.34c2.786,0,5.069,1.084,5.069,1.084l-0.536,2.204
				c0,0-2.127-0.692-4.533-0.692c-2.28,0-4.481,0.81-4.481,2.744c0,4.211,10.442,1.739,10.442,8.854
				c0,3.986-3.332,5.917-7.422,5.917c-3.56,0-5.918-1.426-5.918-1.426L384.604,871.628z"/>
			<path fill="#939598" d="M411.182,870.933c0,0,3.479,1.581,7.305,1.581c3.792,0,6.383-1.353,6.383-4.485
				c0-7-14.037-3.633-14.037-13.034c0-4.597,4.565-6.648,9.244-6.648c3.554,0,6.765,1.432,6.765,1.432l-0.771,2.398
				c0,0-2.865-1.124-6.032-1.124c-3.519-0.039-6.194,1.045-6.194,4.021c0,6.269,14.042,3.326,14.042,12.799
				c0,5.105-4.333,7.349-9.437,7.349c-4.986,0-8.119-2.008-8.119-2.008L411.182,870.933z"/>
			<path fill="#939598" d="M433.688,857.048c0,0,3.367-1.661,6.608-1.661c4.419,0,5.966,1.702,5.966,5.531v14.193h-2.521
				l-0.504-1.551v-0.077c-1.31,1.163-2.969,2.014-4.786,2.014c-3.835,0-6.777-2.438-6.777-6.073c0-3.715,3.18-5.647,6.152-5.647
				h5.411v-2.787c0-2.626-1.231-2.895-2.896-2.895c-2.818,0-6.183,0.928-6.183,0.928L433.688,857.048z M443.238,866.481h-4.943
				c-2.906,0-3.598,1.28-3.598,2.941c0,1.896,1.354,3.366,3.712,3.366c2.437,0,4.829-2.053,4.829-4.179V866.481z"/>
			<path fill="#939598" d="M451.944,857.048c0,0,3.365-1.661,6.617-1.661c4.408,0,5.954,1.702,5.954,5.531v14.193h-2.517
				l-0.504-1.551v-0.077c-1.31,1.163-2.975,2.014-4.789,2.014c-3.834,0-6.777-2.438-6.777-6.073c0-3.715,3.179-5.647,6.154-5.647
				h5.413v-2.787c0-2.626-1.231-2.895-2.896-2.895c-2.82,0-6.186,0.928-6.186,0.928L451.944,857.048z M461.494,866.481h-4.943
				c-2.909,0-3.602,1.28-3.602,2.941c0,1.896,1.355,3.366,3.714,3.366c2.439,0,4.831-2.053,4.831-4.179V866.481z"/>
			<path fill="#939598" d="M483.618,856.277l-6.844,18.56h-3.012l-6.923-18.56l2.709-0.778l5.685,15.277l5.644-15.277
				L483.618,856.277z"/>
			<path fill="#939598" d="M500.601,871.469v2.171c0,0-3.399,1.583-6.148,1.583c-4.914,0-8.125-3.636-8.125-10.015
				c0-6.342,3.023-10.054,7.933-10.054c8.276,0,7.11,11.099,7.11,11.099H489.35c0.232,3.558,1.935,6.262,5.029,6.262
				C497.28,872.514,500.601,871.469,500.601,871.469z M498.666,863.548c-0.191-3.831-2.235-5.688-4.407-5.688
				c-2.943,0-4.522,2.091-4.866,5.688H498.666z"/>
			<path fill="#939598" d="M520.018,874.837h-2.516l-0.505-1.511c-1.153,0.967-2.813,1.896-5.133,1.896
				c-3.79,0-7.124-3.636-7.124-10.016c0-5.955,3.021-10.094,7.93-10.094c1.779,0,3.289,0.928,4.328,1.857v-11.135h3.021
				L520.018,874.837L520.018,874.837z M516.997,870.894v-11.408c-0.883-0.778-2.358-1.667-4.328-1.667
				c-2.976,0-4.984,3.404-4.907,7.388c-0.077,3.83,1.161,7.308,4.752,7.308C514.144,872.514,515.803,871.706,516.997,870.894z"/>
			<path fill="#939598" d="M533.677,857.819c-2.356,0-4.45,1.047-5.84,1.935v15.083h-3.018V855.5h3.018v1.854
				c1.352-1.038,3.355-2.242,5.84-2.242V857.819z"/>
			<path fill="#939598" d="M537.238,857.048c0,0,3.365-1.661,6.611-1.661c4.404,0,5.96,1.702,5.96,5.531v14.193h-2.518l-0.503-1.551
				v-0.077c-1.318,1.163-2.975,2.014-4.797,2.014c-3.825,0-6.768-2.438-6.768-6.073c0-3.715,3.176-5.647,6.147-5.647h5.416v-2.787
				c0-2.626-1.242-2.895-2.896-2.895c-2.828,0-6.194,0.928-6.194,0.928L537.238,857.048z M546.788,866.481h-4.953
				c-2.895,0-3.592,1.28-3.592,2.941c0,1.896,1.354,3.366,3.714,3.366c2.438,0,4.831-2.053,4.831-4.179V866.481z"/>
			<path fill="#939598" d="M553.288,872.17H556v2.705h-2.712V872.17z"/>
		</g>
	</g>
	<g>
		<rect x="-10.428" y="277.516" fill="#2C3E50" width="662.855" height="264.645"/>
		<rect x="15.778" y="349.935" fill="none" width="610.444" height="119.807"/>
		<g enable-background="new    ">
			<path fill="#FFFFFF" d="M79.184,354.488h30.388v4.246H96.228v36.695h-4.67v-36.695H79.184V354.488z"/>
			<path fill="#FFFFFF" d="M142.328,376.02h-18.621v19.409h-4.731v-40.941h4.731v17.286h18.621v-17.286h4.731v40.941h-4.731V376.02z
				"/>
			<path fill="#FFFFFF" d="M157.98,354.488h23.776l-0.606,4.246h-18.438v12.677h16.619l-0.606,4.245h-16.013v15.527h19.045
				l-0.606,4.246H157.98V354.488z"/>
			<path fill="#FFFFFF" d="M217.969,378.629h-8.431v16.801h-4.731v-40.941h13.162c6.732,0,12.495,3.942,12.495,12.01
				C230.464,374.443,224.702,378.629,217.969,378.629z M216.999,358.734h-7.46v15.648h7.46c6.854,0,8.734-3.457,8.734-7.885
				C225.733,362.01,223.853,358.734,216.999,358.734z"/>
			<path fill="#FFFFFF" d="M239.566,353.882h4.731v37.302h18.438v4.246h-23.169V353.882z"/>
			<path fill="#FFFFFF" d="M271.229,354.488h23.776l-0.606,4.246H275.96v12.677h16.619l-0.606,4.245H275.96v15.527h19.045
				l-0.606,4.246h-23.169V354.488z"/>
			<path fill="#FFFFFF" d="M320.664,354.488l15.285,40.941h-5.096l-3.76-10.129h-18.075l-3.821,10.129h-5.034l15.285-40.335
				L320.664,354.488z M310.596,381.054h14.981l-7.4-20.076L310.596,381.054z"/>
			<path fill="#FFFFFF" d="M341.836,389.303c0,0,5.459,2.486,11.463,2.486c5.944,0,10.008-2.122,10.008-7.035
				c0-10.979-22.018-5.702-22.018-20.44c0-7.218,7.158-10.433,14.496-10.433c5.58,0,10.615,2.244,10.615,2.244l-1.213,3.761
				c0,0-4.488-1.759-9.463-1.759c-5.52-0.061-9.704,1.638-9.704,6.308c0,9.826,22.017,5.217,22.017,20.076
				c0,8.007-6.793,11.524-14.799,11.524c-7.824,0-12.737-3.154-12.737-3.154L341.836,389.303z"/>
			<path fill="#FFFFFF" d="M400.916,383.299v-28.811h4.73v28.811c0,7.521-5.701,12.737-14.314,12.737s-14.314-5.216-14.314-12.737
				v-28.811h4.731v28.811c0,5.459,3.761,8.491,9.583,8.491S400.916,388.758,400.916,383.299z"/>
			<path fill="#FFFFFF" d="M433.004,377.9l5.217,9.341c2.547,4.853,6.126,4.974,6.126,4.974l-0.728,3.761
				c0,0-5.338,1.396-9.341-6.187l-6.308-11.282h-7.582v16.923h-4.73v-41.062h13.161c6.732,0,12.495,3.942,12.495,12.01
				C441.315,372.624,437.797,376.506,433.004,377.9z M427.85,358.613h-7.461v15.648h7.461c6.854,0,8.733-3.457,8.733-7.885
				C436.583,361.888,434.703,358.613,427.85,358.613z"/>
			<path fill="#FFFFFF" d="M453.145,354.488h23.776l-0.606,4.246h-18.438v12.677h16.619l-0.606,4.245h-16.013v15.527h19.045
				l-0.606,4.246h-23.17V354.488z"/>
			<path fill="#FFFFFF" d="M513.863,353.882c9.887,0,16.194,7.643,16.194,21.047c0,13.344-6.308,21.107-16.194,21.107
				c-10.008,0-16.255-7.764-16.255-21.107C497.608,361.524,503.855,353.882,513.863,353.882z M513.863,358.128
				c-7.461,0-11.585,5.943-11.524,16.801c-0.061,11.281,4.063,16.861,11.524,16.861c7.399,0,11.402-5.58,11.464-16.861
				C525.265,364.071,521.262,358.128,513.863,358.128z"/>
			<path fill="#FFFFFF" d="M539.098,354.488h23.716l-0.606,4.246h-18.439v13.95h16.68l-0.606,4.246h-16.073v18.499h-4.67V354.488z"
				/>
		</g>
		<g enable-background="new    ">
			<path fill="#FFFFFF" d="M66.504,450.692l5.216,9.341c2.547,4.853,6.126,4.974,6.126,4.974l-0.728,3.761
				c0,0-5.338,1.396-9.341-6.187l-6.308-11.282h-7.582v16.923h-4.731v-41.062h13.162c6.732,0,12.495,3.942,12.495,12.01
				C74.814,445.416,71.296,449.298,66.504,450.692z M61.349,431.405h-7.46v15.648h7.46c6.854,0,8.734-3.457,8.734-7.885
				C70.083,434.68,68.202,431.405,61.349,431.405z"/>
		</g>
		<g enable-background="new    ">
			<path fill="#FFFFFF" d="M85.431,427.28h23.776l-0.606,4.246H90.162v12.677h16.619l-0.607,4.245H90.162v15.527h19.045
				l-0.606,4.246H85.431V427.28z"/>
			<path fill="#FFFFFF" d="M134.866,427.28l15.285,40.941h-5.095l-3.761-10.129h-18.075l-3.821,10.129h-5.034l15.285-40.335
				L134.866,427.28z M124.798,453.846h14.981l-7.4-20.076L124.798,453.846z"/>
			<path fill="#FFFFFF" d="M156.523,427.28h13.222c9.766,0,15.649,7.036,15.649,20.319c0,12.858-6.369,20.622-16.013,20.622h-12.858
				V427.28z M169.624,463.975c7.036,0,10.917-8.673,10.917-16.376c0-9.583-4.185-16.073-10.796-16.073h-8.491v32.449H169.624z"/>
			<path fill="#FFFFFF" d="M193.768,427.28h4.731v40.941h-4.731V427.28z"/>
			<path fill="#FFFFFF" d="M213.906,435.65v32.571h-4.488v-40.335l4.488-0.606l20.137,32.146V427.28h4.731v40.941h-4.731
				L213.906,435.65z"/>
			<path fill="#FFFFFF" d="M270.985,451.117l4.731-1.213v16.68c0,0-5.762,2.244-11.888,2.244c-9.887,0-16.498-7.643-16.498-21.107
				c0-13.404,6.126-21.047,16.134-21.047c7.157,0,11.888,3.154,11.888,3.154l-1.213,3.396c0,0-5.156-2.305-10.675-2.305
				c-6.854,0-11.403,7.035-11.281,16.801c-0.122,8.067,4.125,16.861,11.403,16.861c2.729,0,5.216-0.424,7.399-1.03V451.117z"/>
			<path fill="#FFFFFF" d="M313.264,426.674c9.886,0,16.195,7.643,16.195,21.047c0,13.344-6.309,21.107-16.195,21.107
				c-10.008,0-16.255-7.764-16.255-21.107C297.009,434.316,303.257,426.674,313.264,426.674z M313.264,430.92
				c-7.46,0-11.585,5.943-11.524,16.801c-0.061,11.281,4.064,16.861,11.524,16.861c7.399,0,11.403-5.58,11.463-16.861
				C324.667,436.863,320.664,430.92,313.264,430.92z"/>
			<path fill="#FFFFFF" d="M342.989,435.65v32.571H338.5v-40.335l4.488-0.606l20.137,32.146V427.28h4.73v40.941h-4.73
				L342.989,435.65z"/>
		</g>
		<g enable-background="new    ">
			<path fill="#FFFFFF" d="M391.636,462.095c0,0,5.459,2.486,11.464,2.486c5.943,0,10.008-2.122,10.008-7.035
				c0-10.979-22.018-5.702-22.018-20.44c0-7.218,7.157-10.433,14.496-10.433c5.58,0,10.615,2.244,10.615,2.244l-1.214,3.761
				c0,0-4.488-1.759-9.462-1.759c-5.52-0.061-9.705,1.638-9.705,6.308c0,9.826,22.018,5.217,22.018,20.076
				c0,8.007-6.793,11.524-14.799,11.524c-7.824,0-12.738-3.154-12.738-3.154L391.636,462.095z"/>
		</g>
		<g enable-background="new    ">
			<path fill="#FFFFFF" d="M449.261,433.224c0,0-4.245-2.305-9.462-2.305c-6.854,0-11.402,7.035-11.281,16.801
				c-0.121,8.37,4.124,16.861,11.402,16.861c5.822,0,10.918-3.153,10.918-3.153v4.549c0,0-4.853,2.851-10.676,2.851
				c-9.887,0-16.376-7.643-16.376-21.107c0-13.404,6.005-21.047,16.013-21.047c6.793,0,10.675,3.154,10.675,3.154L449.261,433.224z"
				/>
			<path fill="#FFFFFF" d="M476.375,450.692l5.217,9.341c2.547,4.853,6.126,4.974,6.126,4.974l-0.728,3.761
				c0,0-5.338,1.396-9.341-6.187l-6.308-11.282h-7.582v16.923h-4.73v-41.062h13.161c6.732,0,12.495,3.942,12.495,12.01
				C484.686,445.416,481.168,449.298,476.375,450.692z M471.221,431.405h-7.461v15.648h7.461c6.854,0,8.733-3.457,8.733-7.885
				C479.954,434.68,478.074,431.405,471.221,431.405z"/>
			<path fill="#FFFFFF" d="M496.516,427.28h23.776l-0.606,4.246h-18.438v12.677h16.619l-0.606,4.245h-16.013v15.527h19.045
				l-0.606,4.246h-23.17V427.28z"/>
			<path fill="#FFFFFF" d="M530,427.28h23.775l-0.606,4.246h-18.438v12.677h16.619l-0.606,4.245h-16.013v15.527h19.045l-0.606,4.246
				H530V427.28z"/>
			<path fill="#FFFFFF" d="M567.971,435.65v32.571h-4.488v-40.335l4.488-0.606l20.138,32.146V427.28h4.731v40.941h-4.731
				L567.971,435.65z"/>
		</g>
	</g>
</g>
</svg>
