<?xml version="1.0" standalone="no"?>
<!DOCTYPE svg PUBLIC "-//W3C//DTD SVG 1.1//EN" "http://www.w3.org/Graphics/SVG/1.1/DTD/svg11.dtd" >
<svg xmlns="http://www.w3.org/2000/svg">
<metadata></metadata>
<defs>
<font id="helioregular" horiz-adv-x="1228" >
<font-face units-per-em="2048" ascent="1536" descent="-512" />
<missing-glyph horiz-adv-x="477" />
<glyph unicode="&#xfb01;" horiz-adv-x="1110" d="M45 821v107h150v131q0 119 19.5 201t66 142.5t128 89t203.5 28.5q95 0 184 -20t117 -36q-4 -186 -22 -237h-119l-27 180h3q-49 18 -123 18q-161 0 -217 -76.5t-56 -289.5v-131h574v-822q90 -4 141 -22v-84h-440v84q23 8 58 13.5t59 6.5l24 2v715h-416v-715q84 -4 135 -22 v-84h-424v84q23 8 56 13.5t55 6.5l21 2v715h-150z" />
<glyph unicode="&#xfb02;" horiz-adv-x="1093" d="M23 821v107h149v131q0 119 19.5 201t66.5 142.5t128.5 89t203.5 28.5q190 0 311 -72v-1342q97 -4 148 -22v-84h-453v84q23 8 59.5 13.5t62.5 6.5l25 2v1295q-66 24 -141 24q-161 0 -216.5 -76.5t-55.5 -289.5v-131h215v-107h-215v-715q84 -4 135 -22v-84h-424v84 q23 8 55.5 13.5t53.5 6.5l22 2v715h-149z" />
<glyph horiz-adv-x="2048" />
<glyph horiz-adv-x="2048" />
<glyph unicode="&#xd;" horiz-adv-x="2048" />
<glyph horiz-adv-x="0" />
<glyph unicode=" "  horiz-adv-x="477" />
<glyph unicode="&#x09;" horiz-adv-x="477" />
<glyph unicode="&#xa0;" horiz-adv-x="477" />
<glyph unicode="!" horiz-adv-x="397" d="M102 78q0 52 24 78t79 26t79.5 -26.5t24.5 -77.5q0 -54 -24 -79.5t-80 -25.5t-79.5 25.5t-23.5 79.5zM109 1495h194q-18 -946 -41 -1143h-112q-10 88 -20.5 373.5t-15.5 527.5z" />
<glyph unicode="#" horiz-adv-x="1366" d="M94 682l12 12t36.5 29.5t61.5 41t87.5 42t114.5 37.5l6 -25h2l272 -782l561 1640h279v-131h-189l-585 -1716h-146l-303 840l-180 -52l-23 52z" />
<glyph unicode="$" d="M162 186q0 118 16 166h146l51 -252q72 -18 186 -24q-6 188 -6 547q-39 7 -68 16q-313 84 -313 395q0 40 10 80t37.5 84.5t69.5 79t113 61.5t161 35l6 127h115q2 -45 6 -123q34 -1 65.5 -3.5t59.5 -7t50.5 -8t46 -10.5t37.5 -11t34.5 -12t27.5 -11t25 -10.5t19 -8.5 q4 -31 4 -125q0 -114 -17 -165h-145l-51 245q-76 20 -154 23q5 -140 8 -512l76 -17q64 -15 115.5 -40.5t84 -51t56 -61t35 -60.5t18 -60.5t7.5 -50.5t2 -40v-39q-1 -20 -3.5 -42t-13 -57t-27 -67t-47.5 -67t-71.5 -61.5t-103 -46.5t-138.5 -26l-6 -120v-5h-115v5 q-4 44 -6 120q-256 6 -399 86q-4 31 -4 125zM332 1034q0 -99 59 -156.5t150 -80.5q8 -4 14 -4q0 309 6 475q-114 -19 -171.5 -82.5t-57.5 -151.5zM694 80q62 9 109 33t72.5 52t41 64t19.5 62.5t4 52.5v14q0 84 -51 146.5t-144 83.5q-6 1 -21 4.5t-22 5.5q-3 -379 -8 -518z " />
<glyph unicode="%" horiz-adv-x="1705" d="M-8 946q0 205 80 314.5t262 109.5t262 -109.5t80 -314.5t-80 -314.5t-262 -109.5t-262 109.5t-80 314.5zM133 946q0 -190 41.5 -268t159.5 -78t159.5 78t41.5 268t-41.5 268t-159.5 78t-159.5 -78t-41.5 -268zM350 -27l791 1397h127l-791 -1397h-127zM944 401 q0 205 80 314.5t262 109.5t262 -109.5t80 -314.5t-80 -314.5t-262 -109.5t-262 109.5t-80 314.5zM1085 401q0 -190 41.5 -268t159.5 -78t159.5 78t41.5 268t-41.5 268.5t-159.5 78.5t-159.5 -78.5t-41.5 -268.5z" />
<glyph unicode="&#x26;" horiz-adv-x="1423" d="M49 356q0 46 7 88.5t29 92t56.5 88t94 70t137.5 44.5q-25 22 -50 49t-59 73t-55 105t-21 119q0 76 23.5 131.5t57.5 86t85 48t93.5 22.5t95.5 5q164 -2 249 -76.5t85 -242.5q0 -81 -23.5 -146t-63 -107t-81 -68t-88.5 -42l301 -309q57 94 77 217q-92 2 -159 27v71h424 v-71q-61 -24 -179 -27q-7 -52 -35.5 -134t-66.5 -146l225 -230q97 -9 142 -22v-72h-453v72q53 16 111 22l-105 107q-18 -30 -39 -57.5t-58 -60t-79.5 -56t-104 -39t-130.5 -15.5q-101 0 -180.5 25t-128 64t-79.5 91.5t-43 102t-12 100.5zM231 356q0 -119 71.5 -193.5 t195.5 -74.5q118 0 202 53t138 125l-375 385q-70 -5 -118 -30.5t-71.5 -68.5t-33 -89t-9.5 -107zM362 1087q0 -158 170 -311q105 36 145 111t40 190q0 59 -14.5 101t-32.5 62.5t-46 31.5t-44 12.5t-37 1.5h-5q-22 0 -37.5 -1t-44 -11.5t-47 -29.5t-33 -59.5t-14.5 -97.5z " />
<glyph unicode="'" horiz-adv-x="393" d="M106 1352h175q-1 -48 -5 -109q-2 -35 -11 -108.5t-17 -110.5h-86z" />
<glyph unicode="(" horiz-adv-x="589" d="M98 664q0 150 12.5 267.5t46.5 230t90.5 192t147.5 138t215 83.5v-111q-66 -14 -116.5 -47t-85.5 -86t-58 -118t-36 -154t-18 -182t-5 -213q0 -121 5 -214t18 -182.5t36 -154t58 -117.5t85.5 -86t116.5 -47v-111q-124 25 -215 83.5t-147.5 138t-90.5 192t-46.5 230 t-12.5 268.5z" />
<glyph unicode=")" horiz-adv-x="589" d="M-20 -137q66 14 116.5 46.5t85.5 85.5t58 117.5t36 153.5t18 182t5 214t-5 214t-18 182.5t-36 154.5t-58 118t-85.5 86t-116.5 47v111q123 -25 214 -83.5t147.5 -138t91 -192t47 -230t12.5 -267.5q0 -151 -12.5 -268.5t-46.5 -230t-90.5 -192t-147.5 -138t-215 -83.5v111 z" />
<glyph unicode="*" horiz-adv-x="927" d="M86 803q84 59 266 168q-80 47 -146.5 89.5t-93.5 61.5l-26 19l45 80q99 -46 281 -146q1 91 3.5 167t4.5 106l2 30v2h100v-2q8 -100 10 -305q81 45 151.5 82t100.5 51l31 15l45 -80q-90 -64 -268 -170q83 -49 150 -91t92 -60l26 -17l-45 -80q-97 39 -283 143 q-1 -95 -3.5 -171.5t-4.5 -106.5l-2 -29h-100q-8 96 -10 307q-83 -46 -153 -82t-99 -48l-29 -13z" />
<glyph unicode="+" d="M121 430v137h430v432h137v-432h432v-137h-432v-430h-137v430h-430z" />
<glyph unicode="," horiz-adv-x="454" d="M121 -242l102 215q-51 3 -69.5 24t-18.5 81q0 62 22.5 83t82.5 21q58 0 80 -21t22 -83v-17q-5 -33 -6 -36q-23 -122 -168 -267h-47z" />
<glyph unicode="-" horiz-adv-x="559" d="M63 430v137h433v-137h-433z" />
<glyph unicode="." horiz-adv-x="475" d="M135 78q0 62 22.5 83t82.5 21q58 0 80 -21t22 -83q0 -64 -21.5 -84.5t-80.5 -20.5q-61 0 -83 20.5t-22 84.5z" />
<glyph unicode="/" horiz-adv-x="1179" d="M37 -78l946 1503h150l-949 -1503h-147z" />
<glyph unicode="0" d="M84 676q0 355 123 528.5t407 173.5t407.5 -173.5t123.5 -528.5q0 -356 -123.5 -530.5t-407.5 -174.5t-407 174.5t-123 530.5zM289 676q0 -326 72 -460t253 -134t253.5 134.5t72.5 459.5t-72 458.5t-254 133.5q-181 0 -253 -133.5t-72 -458.5z" />
<glyph unicode="1" d="M205 0v100q54 12 139 19t143 9l58 1v1069q-58 -11 -165.5 -27t-131.5 -18q-20 -2 -43 -2v82l393 131h104v-1235q211 -2 332 -29v-100h-829z" />
<glyph unicode="2" d="M170 0v158l559 641q49 65 73.5 122t28 86.5t3.5 77.5q0 191 -254 191q-116 0 -218 -25l23 4l-39 -247h-135q-16 58 -24.5 130.5t-9.5 115.5l-1 44q179 80 414 80q436 0 436 -299q0 -47 -3.5 -76t-17 -73.5t-46.5 -95.5t-87 -117q-36 -44 -213 -242t-305 -338h512 q6 34 15 70t20 76t14 51h150v-334h-895z" />
<glyph unicode="3" d="M158 170q0 117 18 186h125l53 -247l56 -13q92 -18 174 -18q73 0 128.5 19.5t87.5 49.5t52 73t26.5 83t6.5 86q0 37 -10 73.5t-34.5 74t-62 65.5t-98 46t-135.5 18h-15q-75 -3 -104 -9v129q36 -8 141 -8q73 2 129.5 24.5t88.5 58t47.5 75t15.5 80.5q0 111 -65.5 185.5 t-207.5 74.5q-110 0 -208 -25l-50 -225h-122q-17 57 -17 150q0 57 10 122q87 39 175 59.5t223 20.5q436 0 436 -362q0 -196 -199 -275q71 -25 122.5 -64t79 -87.5t40 -97.5t12.5 -103q0 -67 -13.5 -124.5t-48 -112.5t-88 -93.5t-138 -62t-193.5 -23.5q-100 0 -188.5 17.5 t-136.5 37t-109 50.5q-4 27 -4 92z" />
<glyph unicode="4" d="M90 338v127l653 887h179v-887h215v-127h-215v-213q115 -5 174 -25v-100h-525v100q25 9 68 15t73 8l31 2v213h-653zM227 465h516v704z" />
<glyph unicode="5" d="M164 78q0 70 6 119q15 126 25 157h124l46 -248q27 -8 45 -10q92 -18 174 -18q301 0 301 295q0 55 -7 95.5t-28.5 80.5t-58 65t-100 40.5t-150.5 15.5h-363l41 682h787l-19 -326h-121q-3 11 -14.5 48.5t-20.5 73t-14 69.5h-479l-29 -426h277q113 0 199.5 -23t141 -61 t89 -93t48 -113.5t13.5 -127.5q0 -67 -13.5 -123t-48 -108.5t-88 -89t-138 -58t-193.5 -21.5q-100 0 -188 18t-135 37t-109 50z" />
<glyph unicode="6" d="M137 623v53q0 52 3 100.5t10 115t24.5 131t42.5 112.5q65 126 177.5 184.5t279.5 58.5q121 0 231 -28t154 -52q4 -27 4 -81q0 -109 -19 -197h-124l-52 231q-65 27 -194 27q-219 0 -295 -188q-27 -64 -38 -206t-11 -259q59 83 163 139.5t238 56.5q367 0 367 -424 q0 -197 -108.5 -310.5t-342.5 -113.5q-91 1 -163 17t-125 44t-92 72t-64 95.5t-40 120.5t-20.5 140t-5.5 161zM338 436q0 -178 71 -270t236 -92q65 0 113 17.5t76 46t44 72t21.5 87t5.5 100.5q0 173 -57.5 245.5t-161.5 72.5q-62 0 -119.5 -21.5t-101 -58t-73 -69.5 t-54.5 -70v-60z" />
<glyph unicode="7" d="M156 1286v25v41h925v-125l-538 -1227h-211l594 1214h-582l-31 -194h-123q-7 25 -10 45q-8 30 -10 55q-6 44 -9.5 92t-4.5 74z" />
<glyph unicode="8" d="M143 305q0 127 64 221t205 158q-234 82 -234 342q0 47 6.5 86t23.5 80t49.5 72.5t80.5 57.5t121.5 40.5t167.5 15.5q420 0 420 -309q0 -108 -49 -184.5t-160 -132.5q132 -51 197 -147t65 -257q0 -72 -13 -127.5t-46 -103.5t-87 -78.5t-139 -48t-199 -17.5 q-131 0 -225.5 25.5t-147.5 72.5t-76.5 104.5t-23.5 129.5zM289 324q0 -113 83.5 -185.5t243.5 -72.5q152 0 223.5 58t71.5 204v20q0 28 -1.5 47.5t-9 51t-20.5 54.5t-39.5 50t-63.5 45.5t-93.5 34t-128.5 22.5q-266 -104 -266 -329zM354 1028q0 -29 5.5 -52t24.5 -50.5 t52.5 -49.5t93.5 -43t142 -36l57 -13q81 36 132.5 103t51.5 164q0 39 -5.5 69.5t-23.5 63t-48 54t-83.5 35t-125.5 13.5q-141 -3 -207 -62t-66 -196z" />
<glyph unicode="9" d="M135 954q0 94 24 168.5t75 132.5t137 90t204 33q111 0 189.5 -12.5t138 -44t96 -77t59 -121.5t30.5 -167.5t8 -222.5q0 -4 0.5 -28.5t1 -60.5t0.5 -69q0 -105 -18 -210t-56 -172q-128 -220 -465 -220q-102 0 -198 20t-141 40l-46 20q-8 63 -2 146q4 74 16 133h125 l49 -232q86 -26 197 -26q231 0 303 164q41 91 45 432q-50 -61 -151 -100.5t-254 -39.5q-367 0 -367 424zM328 954q0 -172 57.5 -244.5t161.5 -72.5q119 0 206.5 44t141.5 103v131q0 93 -10 154.5t-30 104t-57.5 64.5t-86.5 31t-123 9q-65 0 -113 -18t-76 -46t-44 -72 t-21.5 -87.5t-5.5 -100.5z" />
<glyph unicode=":" horiz-adv-x="483" d="M137 78q0 52 24 78t79 26t78.5 -26t23.5 -78q0 -54 -23 -79.5t-79 -25.5t-79.5 25.5t-23.5 79.5zM137 735q0 52 24 78.5t79 26.5t78.5 -26.5t23.5 -78.5q0 -54 -23 -79t-79 -25t-79.5 25t-23.5 79z" />
<glyph unicode=";" horiz-adv-x="487" d="M135 -242l101 215q-54 1 -76.5 26t-22.5 79q0 52 24 78t79 26t78.5 -26t23.5 -78v-17q0 -2 -1 -6t-1 -6q-14 -133 -172 -291h-33zM137 735q0 52 24 78.5t79 26.5t78.5 -26.5t23.5 -78.5q0 -54 -23 -79t-79 -25t-79.5 25t-23.5 79z" />
<glyph unicode="&#x3c;" d="M100 494q0 54 11 81l999 596v-157l-870 -516l870 -512v-160l-999 596q-11 28 -11 72z" />
<glyph unicode="=" d="M115 211v137h999v-137h-999zM115 649v137h999v-137h-999z" />
<glyph unicode="&#x3e;" d="M119 -16l868 514l-868 516v157l999 -596q10 -25 10 -81q0 -47 -10 -72l-999 -596v158z" />
<glyph unicode="?" horiz-adv-x="1060" d="M84 1360q41 34 145 70t242 36q91 0 165.5 -14t125 -37t89 -56t60.5 -67t35.5 -74.5t18 -73.5t4.5 -69q0 -75 -7.5 -136t-20.5 -106t-36 -81t-46.5 -60.5t-60 -46t-70 -35.5t-81.5 -30q-44 -15 -77 -30.5t-53 -31.5t-32.5 -28.5t-18.5 -28.5t-8 -24t-3 -21l-11 -99h-116 q-9 85 -9 93q0 63 10.5 103t42 72t69.5 53t112 54q47 21 82 43.5t59 42.5t40 48.5t25 50.5t13 59.5t5 64t1 74.5q0 41 -6.5 77t-26.5 76t-52.5 68.5t-89.5 47t-132 18.5q-84 0 -168 -25l-22 -278h-146q-11 32 -24 107.5t-20 134.5zM287 78q0 52 23.5 78t78.5 26t79 -26 t24 -78q0 -54 -23.5 -79.5t-79.5 -25.5q-55 0 -78.5 25.5t-23.5 79.5z" />
<glyph unicode="@" horiz-adv-x="1660" d="M78 506q25 166 81.5 297t135.5 219.5t183 146.5t220 83.5t250 25.5q347 0 510.5 -200t108.5 -572q-7 -50 -17 -96.5t-29 -108.5t-48 -112t-68 -94.5t-95.5 -69.5t-123.5 -25q-246 0 -221 244q-137 -123 -289 -123q-241 0 -244 256q0 82 19 172q20 91 56 161t77.5 111 t92.5 67t96 35t93 9q84 0 144.5 -23.5t87.5 -58.5q3 6 24 41q5 9 14 19.5l15 17.5l6 6h96l-47 -129l-102 -492l-4 -20q-8 -53 -9 -96t24 -71t77 -28q90 0 148.5 107t82.5 305q86 672 -487 672q-105 0 -196 -21t-176 -70.5t-151 -126t-115.5 -193t-72.5 -265.5 q-17 -149 1.5 -265t64 -192t117.5 -126t157.5 -71t190.5 -22q179 0 311 59l51 -92q-163 -63 -368 -63q-134 0 -243 25.5t-198 83.5t-145 146.5t-79.5 219.5t-6.5 297zM571 381q2 -77 40.5 -117.5t125.5 -40.5q135 0 252 150v2l82 381q-56 84 -168 84q-71 0 -124.5 -22.5 t-88.5 -65.5t-57 -92.5t-39 -116.5q-23 -97 -23 -162z" />
<glyph unicode="A" horiz-adv-x="1404" d="M10 0v84q53 19 119 25l502 1253h147l494 -1253q64 -6 123 -25v-84h-484v84q60 22 160 29l-145 383h-500l-150 -383q94 -4 166 -29v-84h-432zM467 602h418l-207 547v-2z" />
<glyph unicode="B" horiz-adv-x="1329" d="M98 0v84q23 8 57.5 15t57.5 9l23 3v1130q-87 9 -138 27v84h566q136 0 231 -23.5t148.5 -70.5t76.5 -107t23 -141q0 -207 -209 -281q297 -71 297 -344q0 -93 -27.5 -161.5t-89.5 -120t-169.5 -77.5t-260.5 -26h-586zM414 106h270q342 0 342 279q0 43 -8 80t-30.5 75.5 t-59.5 66t-99.5 44.5t-144.5 17h-270v-562zM414 774h250q79 0 135.5 20.5t85 56t41 74.5t12.5 85q0 235 -274 235h-250v-471z" />
<glyph unicode="C" horiz-adv-x="1343" d="M104 688q0 690 644 690q179 0 311 -45.5t186 -97.5q4 -31 4 -125q0 -118 -16 -166h-146l-49 232q-39 42 -115.5 67t-174.5 25q-85 0 -150 -15.5t-121 -55t-92 -104.5t-56 -166.5t-20 -238.5q0 -143 22 -250t59.5 -174t94.5 -108t120 -56.5t143 -15.5q98 0 174.5 25 t115.5 67l49 232h146q16 -48 16 -166q0 -94 -4 -125q-54 -52 -186 -98t-311 -46q-118 0 -214 22.5t-177.5 75t-136.5 134.5t-85.5 203.5t-30.5 279.5z" />
<glyph unicode="D" horiz-adv-x="1486" d="M104 0v84q23 8 60.5 15t63.5 9l26 3v1130q-99 9 -150 27v84h570q354 0 510.5 -161.5t156.5 -518.5q0 -348 -157 -510t-510 -162h-570zM432 106h242q246 0 354.5 130t108.5 436q0 163 -29 274t-89 177t-143.5 94t-201.5 28h-242v-1139z" />
<glyph unicode="E" horiz-adv-x="1236" d="M98 0v84q23 8 57.5 15t57.5 9l23 3v1130q-87 9 -138 27v84h1030q2 -44 2 -95q0 -46 -4 -117.5t-10 -95.5h-102l-37 201h-563v-493h334l28 166h84q7 -36 11.5 -89.5t4.5 -88.5l1 -35q-1 -131 -17 -213h-84l-28 161h-334v-547h563l37 201h102q6 -24 10 -95.5t4 -117.5 l-2 -94h-1030z" />
<glyph unicode="F" horiz-adv-x="1191" d="M98 0v84q66 21 138 27v1128q-82 7 -138 29v84h1030q2 -44 2 -95q0 -46 -4 -117.5t-10 -95.5h-102l-37 201h-563v-493h334l28 166h84q7 -36 11.5 -89.5t4.5 -88.5l1 -35q-1 -131 -17 -213h-84l-28 161h-334v-540q67 -5 155 -29v-84h-471z" />
<glyph unicode="G" horiz-adv-x="1429" d="M104 688q0 690 644 690q179 0 311 -45.5t186 -97.5q4 -31 4 -125q0 -118 -16 -166h-146l-49 232q-39 42 -115.5 67t-174.5 25q-85 0 -150 -15.5t-121 -55t-92 -104.5t-56 -166.5t-20 -238.5q0 -143 22 -250t59.5 -174t94.5 -108t120 -56.5t143 -15.5q219 0 319 82v309 q-106 6 -156 33v94h426v-94q-37 -18 -92 -25v-366q-54 -52 -186 -98t-311 -46q-118 0 -214 22.5t-177.5 75t-136.5 134.5t-85.5 203.5t-30.5 279.5z" />
<glyph unicode="H" horiz-adv-x="1566" d="M98 0v84q66 21 140 27v1130q-90 7 -140 27v84h473v-84q-66 -23 -155 -27v-467h735v465q-87 4 -154 29v84h471v-84q-61 -23 -139 -29v-1128q66 -5 139 -27v-84h-471v84q81 24 154 29v555h-735v-555q65 -5 153 -29v-84h-471z" />
<glyph unicode="I" horiz-adv-x="667" d="M98 0v84q81 24 148 29v1126q-81 4 -148 29v84h471v-84q-61 -23 -145 -29v-1128q73 -6 145 -27v-84h-471z" />
<glyph unicode="J" horiz-adv-x="1089" d="M41 86q0 229 20 301h138l43 -258q82 -45 178 -45q64 0 108 7.5t78 28.5t54 52t32.5 84.5t17 118t5.5 160.5v704q-146 6 -209 29v84h532v-84q-61 -23 -145 -29v-723q-1 -164 -25 -268t-82.5 -166t-144 -85.5t-221.5 -23.5q-111 0 -220.5 35t-158.5 78z" />
<glyph unicode="K" horiz-adv-x="1441" d="M98 0v84q66 21 140 27v1128q-84 7 -140 29v84h471v-84q-73 -25 -153 -29v-520l588 520q-85 6 -146 29v84h471v-84q-62 -23 -137 -29l-502 -440l553 -690q87 -8 137 -25v-84h-497v84q67 21 137 27l-461 571l-143 -125v-444q65 -5 153 -29v-84h-471z" />
<glyph unicode="L" horiz-adv-x="1150" d="M98 0v84q23 8 57.5 15t57.5 9l23 3v1128q-82 7 -138 29v84h457v-84q-61 -23 -141 -29v-1133h542l37 201h103q6 -24 10 -95.5t4 -117.5l-2 -94h-1010z" />
<glyph unicode="M" horiz-adv-x="1916" d="M98 0v84q81 24 148 29v1126q-81 7 -137 29v84h405l451 -1035l467 1035h376v-84q-61 -23 -139 -29v-1126q69 -5 150 -29v-84h-480v84q81 24 152 29v1065l-524 -1178h-29v6l-2 -6h-29l-524 1178v-1065q99 -7 164 -29v-84h-449z" />
<glyph unicode="N" horiz-adv-x="1540" d="M98 0v84q81 24 148 29v1126q-81 7 -137 29v84h385l673 -1057v942q-99 4 -178 31v84h453v-84q-62 -23 -137 -29v-1239h-152l-770 1194v-1081q98 -4 170 -29v-84h-455z" />
<glyph unicode="O" horiz-adv-x="1486" d="M104 688q0 690 639 690t639 -690q0 -159 -33.5 -283t-91 -204.5t-140 -132.5t-174 -73.5t-200.5 -21.5t-200.5 21.5t-174 73.5t-140 132.5t-91 204.5t-33.5 283zM309 688q0 -141 21 -247t58 -173.5t93 -109t119 -58t143 -16.5t143 16.5t119.5 58t93 109t58 173.5 t21.5 247q0 117 -14 208.5t-42.5 154t-65.5 106t-88 67.5t-104.5 34t-120.5 10t-120.5 -10t-104.5 -34t-87.5 -67t-65 -106t-42.5 -154.5t-14 -208.5z" />
<glyph unicode="P" horiz-adv-x="1181" d="M98 0v84q66 21 138 27v1128q-82 7 -138 29v84h512q144 0 245.5 -27t159.5 -80.5t83.5 -123t25.5 -163.5t-25.5 -163.5t-83.5 -122.5t-159.5 -80t-245.5 -27h-196v-452q100 -4 172 -29v-84h-488zM414 672h196q78 0 135 15.5t90 40.5t52.5 64t26 77.5t6.5 88.5t-6.5 88.5 t-26 77.5t-52.5 64t-90 41t-135 16h-196v-573z" />
<glyph unicode="Q" horiz-adv-x="1486" d="M104 688q0 690 639 690t639 -690q0 -518 -346 -663q62 -57 152 -164h-240l-96 119q-65 -7 -109 -7q-109 0 -200.5 21.5t-174 73.5t-140 132.5t-91 204.5t-33.5 283zM309 688q0 -141 21 -247t58 -173.5t93 -109t119 -58t143 -16.5h23l-127 156h123q83 -52 172 -123 q118 48 181 184t63 387q0 117 -14 208.5t-42.5 154t-65.5 106t-88 67.5t-104.5 34t-120.5 10t-120.5 -10t-104.5 -34t-87.5 -67t-65 -106t-42.5 -154.5t-14 -208.5z" />
<glyph unicode="R" horiz-adv-x="1277" d="M98 0v84q66 21 140 27v1128q-84 7 -140 29v84h531q115 0 202 -19t142 -51t89.5 -79t48 -98.5t13.5 -113.5q0 -284 -331 -340l317 -540q84 -7 147 -27v-84h-466v84q54 19 120 25l-297 522h-198v-518q98 -4 170 -29v-84h-488zM416 737h213q85 0 144.5 20t90 57t43.5 79.5 t13 97.5q0 56 -13 99t-43.5 79.5t-90 56t-144.5 19.5h-213v-508z" />
<glyph unicode="S" horiz-adv-x="1200" d="M98 186q0 115 17 166h145l49 -237q109 -31 279 -31q91 0 159.5 23.5t102.5 54.5t54.5 71.5t25 65t4.5 45.5v14q0 75 -52.5 131t-133.5 74q-24 5 -154 31t-180 41q-90 24 -152.5 66t-94 96t-44 107t-12.5 116v14q0 34 8.5 68.5t28.5 75t58.5 75t91.5 63.5t135 45.5 t183 16.5q259 0 439 -82q4 -31 4 -125q0 -114 -17 -165h-145l-49 233q-102 29 -234 29q-88 -1 -155.5 -21.5t-105 -55t-56 -74t-18.5 -83.5q0 -89 59 -142.5t149 -74.5q34 -8 109 -22t140.5 -29.5t119.5 -34.5q40 -14 73.5 -33t57.5 -37.5t43 -43t31 -44t20 -46.5t12 -43.5 t5.5 -43.5t1.5 -38t-1 -34t-1 -26q-4 -29 -9.5 -55t-21 -65.5t-37.5 -71t-61 -66t-88.5 -58t-123.5 -38.5t-163 -15q-326 0 -492 88q-4 31 -4 125z" />
<glyph unicode="T" horiz-adv-x="1185" d="M10 1257l2 95h1162q2 -44 2 -95q0 -44 -4.5 -116t-10.5 -97h-102l-37 201h-344v-1134q68 -5 141 -27v-84h-457v84q66 21 138 27v1134h-338l-35 -201h-102q-6 25 -10.5 97t-4.5 116z" />
<glyph unicode="U" horiz-adv-x="1472" d="M51 1268v84h473v-84q-66 -23 -155 -27v-762q0 -192 97.5 -293.5t291.5 -101.5q389 0 389 395v758q-99 4 -178 31v84h452v-84q-62 -23 -137 -29v-760q0 -242 -129.5 -374t-396.5 -132q-138 0 -240.5 26.5t-177.5 85t-112.5 157t-37.5 237.5v762q-89 7 -139 27z" />
<glyph unicode="V" horiz-adv-x="1445" d="M20 1268v84h484v-84q-73 -25 -158 -29l416 -1036l2 2l395 1032q-94 6 -166 31v84h432v-84q-69 -22 -118 -27l-496 -1251h-147l-519 1251q-64 6 -125 27z" />
<glyph unicode="W" horiz-adv-x="2117" d="M20 1268v84h484v-84q-72 -25 -166 -31l311 -981v-6l338 1102h193l344 -1100l301 985q-122 4 -191 31v84h463v-84q-67 -22 -131 -27l-377 -1247h-162l-368 1134l-348 -1134h-140v4l-436 1243q-53 5 -115 27z" />
<glyph unicode="X" horiz-adv-x="1570" d="M61 0v84q72 25 175 29l440 559l-434 569q-86 4 -148 27v84h549v-84q-72 -25 -166 -29l336 -455l346 455q-104 2 -182 29v84h498v-84q-61 -23 -152 -27l-436 -567l454 -561q96 -4 168 -29v-84h-551v84q73 21 146 27l-346 434l-348 -432q71 -5 151 -29v-84h-500z" />
<glyph unicode="Y" horiz-adv-x="1282" d="M-20 1268v84h483v-84q-50 -20 -133 -27l350 -557l2 2l330 553q-87 7 -142 29v84h433v-84q-61 -23 -144 -29l-416 -684v-444q69 -5 142 -27v-84h-457v84q67 21 137 27v446l-434 682q-83 4 -151 29z" />
<glyph unicode="Z" horiz-adv-x="1280" d="M98 1257l2 95h1067v-135l-852 -1111h713l37 201h102q6 -25 10.5 -97t4.5 -116l-2 -94h-1069v135l847 1110h-708l-35 -201h-102q-6 25 -10.5 97t-4.5 116z" />
<glyph unicode="[" horiz-adv-x="512" d="M131 -252v1829q189 0 324 -12v-95h-187v-1617h187v-93q-60 -5 -141 -8t-132 -4h-51z" />
<glyph unicode="\" horiz-adv-x="964" d="M37 1425h141l742 -1503h-140z" />
<glyph unicode="]" horiz-adv-x="528" d="M76 -147h186v1617h-186v95q60 5 141 8t131 3l51 1v-1829q-188 0 -323 12v93z" />
<glyph unicode="_" horiz-adv-x="1064" d="M0 -201h1065v-100h-1065v100z" />
<glyph unicode="`" horiz-adv-x="876" d="M205 1352h215q59 -68 103 -132t59.5 -95t17.5 -40h-92z" />
<glyph unicode="a" horiz-adv-x="1103" d="M102 270q0 243 304 260q33 2 339 2v82q-3 136 -57 191t-170 55q-102 0 -190 -20l-29 -191h-125q-8 23 -13.5 83t-6.5 108l-2 49q177 65 366 65q213 0 299 -83t86 -257v-508q88 -4 139 -22v-84h-297v143q-27 -33 -54 -58t-69 -53t-99 -43.5t-124 -15.5q-80 0 -138.5 23 t-92.5 64.5t-50 93.5t-16 116zM260 270q0 -78 46.5 -129t142.5 -51q86 0 163.5 46t132.5 112v194h-102q-160 0 -199 -2q-98 -3 -141 -52t-43 -118z" />
<glyph unicode="b" horiz-adv-x="1179" d="M43 1411v84h305v-682q130 141 334 141q401 0 401 -489q0 -492 -401 -492q-209 0 -342 148q-5 -23 -25 -70q-4 -11 -11.5 -24t-13.5 -20l-5 -7h-123l31 176v1213q-99 4 -150 22zM348 223q133 -137 293 -137q270 0 270 379q0 191 -67 284t-203 93q-157 0 -293 -140v-479z " />
<glyph unicode="c" horiz-adv-x="1050" d="M106 465q0 263 113.5 376t362.5 113q224 0 356 -102q4 -20 4 -86q0 -93 -8 -117h-129l-37 160q-81 51 -186 51q-67 0 -117.5 -16.5t-94.5 -58t-67.5 -122t-23.5 -198.5q0 -119 23.5 -200t67.5 -122.5t94.5 -58t117.5 -16.5q87 0 186 30l55 174h129q4 -16 4 -39 q0 -31 -6 -91.5t-12 -78.5q-150 -90 -356 -90q-248 0 -362 113.5t-114 378.5z" />
<glyph unicode="d" horiz-adv-x="1196" d="M102 465q0 489 402 489q200 0 334 -141v576q-99 4 -150 22v84h307v-1389q99 -4 150 -22v-84h-307v113q-133 -140 -334 -140q-205 0 -303.5 127.5t-98.5 364.5zM274 465q0 -379 271 -379q160 0 293 137v479q-136 140 -293 140q-271 0 -271 -377z" />
<glyph unicode="e" horiz-adv-x="1071" d="M106 465q0 123 30 215.5t74 143t107 81.5t116.5 40t115.5 9q67 0 124.5 -10.5t113 -38t94 -71t63 -114t25.5 -161.5v-94h-690q0 -97 16 -168.5t42.5 -115t67.5 -69.5t83.5 -35t97.5 -9q94 0 186 28l57 193h129q3 -18 3 -53q0 -46 -7.5 -104t-13.5 -75q-164 -84 -354 -84 q-246 0 -363 115.5t-117 376.5zM283 559h514q-3 303 -248 303q-127 0 -190 -77.5t-76 -225.5z" />
<glyph unicode="f" horiz-adv-x="770" d="M111 821v107h149v131q0 79 8.5 143t32.5 125t63 102t103 66t149 25q60 0 139.5 -14t100.5 -27q-4 -187 -22 -238h-119l-27 176h2q-50 8 -82 8q-103 0 -146.5 -90.5t-43.5 -275.5v-131h266v-107h-266v-715q137 -4 188 -22v-84h-477v84q23 8 55.5 13.5t53.5 6.5l22 2v715 h-149z" />
<glyph unicode="g" horiz-adv-x="1136" d="M102 481q0 222 105 347.5t297 125.5q208 0 336 -143q10 32 24 66q4 11 12 24t14 20l5 7h123l-31 -160v-772q0 -125 -22 -209.5t-75.5 -146t-146.5 -89.5t-233 -28q-118 0 -218.5 22.5t-156.5 48.5q-4 29 -4 78q0 51 2 84q4 56 14 99h125l37 -205q102 -25 201 -25 q116 0 184 33.5t101.5 115t33.5 222.5v154q-132 -132 -325 -132t-297.5 121t-104.5 342zM274 481q0 -177 71.5 -263.5t199.5 -86.5q151 0 284 129v451q-131 131 -284 131q-127 0 -199 -91.5t-72 -269.5z" />
<glyph unicode="h" horiz-adv-x="1288" d="M92 1411v84h309v-713q146 172 369 172q154 0 225.5 -85.5t71.5 -221.5v-541q99 -4 150 -22v-84h-457v84q23 8 60 13.5t63 6.5l26 2v541q0 79 -44.5 129.5t-149.5 50.5q-89 0 -174 -44t-140 -105v-572q99 -4 150 -22v-84h-457v84q23 8 60.5 13.5t63.5 6.5l26 2v1283 q-101 4 -152 22z" />
<glyph unicode="i" horiz-adv-x="630" d="M92 0v84q23 8 60.5 13.5t63.5 6.5l26 2v715q-99 5 -150 23v84h307v-822q99 -4 150 -22v-84h-457zM197 1262q0 52 23.5 78t78.5 26t78.5 -26t23.5 -78q0 -54 -23.5 -79.5t-78.5 -25.5t-78.5 25.5t-23.5 79.5z" />
<glyph unicode="j" horiz-adv-x="581" d="M-92 -434q0 141 22 235h119l27 -182q12 -2 43 -2q80 0 106.5 62.5t26.5 205.5v936q-99 5 -150 23v84h308v-1043q0 -71 -7 -123t-25.5 -99t-50.5 -76.5t-83 -46.5t-121 -17q-60 0 -125.5 12t-89.5 29v2zM213 1264q0 52 23.5 78t78.5 26t79 -26t24 -78q0 -54 -23.5 -79.5 t-79.5 -25.5q-55 0 -78.5 25.5t-23.5 79.5z" />
<glyph unicode="k" horiz-adv-x="1167" d="M92 0v84q23 8 61 13.5t65 6.5l26 2v1283q-101 4 -152 22v84h309v-1014l402 340q-94 5 -139 23v84h401v-84q-48 -17 -113 -23l-319 -270l368 -445q84 -7 129 -22v-84h-417v84q32 10 102 20l-293 353l-121 -103v-252q64 -8 97 -18v-84h-406z" />
<glyph unicode="l" horiz-adv-x="630" d="M92 0v84q23 8 61 13.5t65 6.5l26 2v1283q-101 4 -152 22v84h309v-1389q101 -4 152 -22v-84h-461z" />
<glyph unicode="m" horiz-adv-x="1951" d="M102 0v84q23 8 60.5 13.5t63.5 6.5l26 2v715q-99 5 -150 23v84h308v-146q146 172 368 172q118 0 187 -51t94 -139q150 190 385 190q154 0 225.5 -85.5t71.5 -221.5v-541q98 -4 149 -22v-84h-456v84q23 8 60 13.5t63 6.5l26 2v541q0 79 -44.5 129.5t-149.5 50.5 q-90 0 -176 -44.5t-140 -106.5q2 -10 2 -29v-541q99 -4 150 -22v-84h-457v84q23 8 60.5 13.5t63.5 6.5l26 2v541q0 79 -45 129.5t-150 50.5q-89 0 -173.5 -44t-139.5 -105v-572q98 -4 149 -22v-84h-457z" />
<glyph unicode="n" horiz-adv-x="1286" d="M102 0v84q23 8 60.5 13.5t63.5 6.5l26 2v715q-99 5 -150 23v84h308v-146q146 172 368 172q154 0 225.5 -85.5t71.5 -221.5v-541q99 -4 150 -22v-84h-457v84q23 8 60.5 13.5t63.5 6.5l26 2v541q0 79 -45 129.5t-150 50.5q-89 0 -173.5 -44t-139.5 -105v-572q98 -4 149 -22 v-84h-457z" />
<glyph unicode="o" horiz-adv-x="1140" d="M106 465q0 116 27.5 204.5t71 142t106 87t124.5 45.5t134 12t134.5 -12t125 -45.5t106.5 -87t71.5 -142t27.5 -204.5t-27.5 -204.5t-71.5 -142t-106.5 -87.5t-125 -46t-134.5 -12t-134 12t-124.5 46t-106 87.5t-71 142t-27.5 204.5zM279 465q0 -199 69.5 -299t220.5 -100 t222 100t71 299t-71 299t-222 100t-220.5 -100t-69.5 -299z" />
<glyph unicode="p" horiz-adv-x="1216" d="M74 -367q23 8 60 13.5t63 7.5l26 2v1165q-98 5 -149 23v84h305v-115q128 139 332 139q403 0 403 -489q0 -132 -31.5 -229t-91 -154.5t-137 -85t-176.5 -27.5q-93 0 -171 34.5t-128 82.5v-428q98 -5 149 -23v-84h-454v84zM379 197q52 -54 124.5 -85.5t149.5 -31.5 q148 0 218.5 95.5t70.5 287.5q0 191 -67 284t-203 93q-157 0 -293 -140v-503z" />
<glyph unicode="q" horiz-adv-x="1163" d="M102 463q0 491 402 491q210 0 340 -149q12 45 26 72q4 11 12 24t14 20l5 7h123l-31 -176v-1096q99 -5 150 -23v-84h-455v84q23 8 60.5 14t63.5 7l26 2v455q-133 -140 -334 -140q-205 0 -303.5 127.5t-98.5 364.5zM274 463q0 -379 271 -379q160 0 293 137v481 q-136 140 -293 140q-271 0 -271 -379z" />
<glyph unicode="r" horiz-adv-x="862" d="M102 0v84q23 8 60.5 13.5t63.5 6.5l26 2v715q-99 5 -150 23v84h308v-146q47 86 123.5 129t156.5 43q26 0 51.5 -4.5t43 -11.5t31 -13.5t19.5 -11.5q5 -4 5 -6q0 -120 -31 -233h-117l-24 155q-35 7 -41 7q-71 0 -131 -60t-86 -125v-545q143 -4 194 -22v-84h-502z" />
<glyph unicode="s" horiz-adv-x="952" d="M104 49q0 35 6 120t17 115h125l29 -196q88 -20 200 -20q65 0 113.5 15t73 39t36 45.5t15.5 43.5q2 10 2 31q0 102 -137 129q-206 38 -248 49q-225 56 -225 285v18q1 30 9.5 57.5t33 60.5t62.5 57t104.5 40t152.5 16q182 0 356 -71q-4 -189 -22 -240h-125l-29 197 q-102 20 -180 20q-208 0 -223 -125h2q-2 -6 -2 -20q0 -117 139 -148q27 -6 130 -25t151 -34q106 -32 146 -94t40 -150q0 -29 -2 -45q-3 -21 -6 -34t-13.5 -41.5t-25 -48t-43 -45t-65 -40.5t-92.5 -26t-124 -11q-87 0 -159.5 10t-104.5 20.5t-71.5 27t-45.5 18.5z" />
<glyph unicode="t" horiz-adv-x="733" d="M78 821v107h145v51q0 40 11.5 119.5t21.5 103.5h125v-274h235v-107h-235v-581q0 -94 30 -124t99 -30q99 0 145 25v-99q-26 -13 -81.5 -21.5t-94.5 -8.5q-144 0 -200 56.5t-56 201.5v581h-145z" />
<glyph unicode="u" horiz-adv-x="1255" d="M61 844v84h308v-647q0 -78 43 -129.5t141 -51.5q88 0 171 37.5t134 91.5v592q-98 5 -149 23v84h307v-822q98 -4 149 -22v-84h-307v121q-54 -60 -144 -104t-216 -44q-150 0 -218.5 83.5t-68.5 224.5v540q-99 5 -150 23z" />
<glyph unicode="v" horiz-adv-x="1083" d="M-37 844v84h402v-84q-38 -13 -123 -21l270 -643l279 643q-94 4 -140 21v84h185v-6l2 6h192v-84q-62 -23 -110 -23l-359 -827h-129l-358 827q-51 0 -111 23z" />
<glyph unicode="w" horiz-adv-x="1521" d="M0 844v84h401v-84q-43 -17 -135 -21l193 -606l219 711h162l227 -723l188 616q-82 5 -131 23v84h357v-84q-49 -17 -97 -21l-251 -825l2 -4h-154l-238 729l-223 -729h-131l-289 827q-53 5 -100 23z" />
<glyph unicode="x" horiz-adv-x="1089" d="M41 0v84q45 15 135 22l279 343l-287 374q-66 4 -109 21v84h424v-84q-41 -15 -127 -19l205 -272l-2 -2l8 -8l221 282q-103 8 -131 19v84h371v-84q-35 -12 -106 -19l-285 -364l297 -355q68 -6 115 -22v-84h-428v84q46 15 137 20l-228 265l-221 -267q83 -4 127 -18v-84h-395 z" />
<glyph unicode="y" horiz-adv-x="1071" d="M-33 844v84h402v-84q-37 -13 -121 -21l299 -665l254 665q-98 5 -146 21v84h185v-6l2 6h196v-84q-46 -17 -104 -23l-334 -864l-63 -166q-5 -13 -15 -39.5t-15.5 -40.5t-16 -37t-18 -36t-21 -31.5t-26.5 -28.5t-31.5 -22t-39 -18.5t-47.5 -10.5t-57 -4q-59 0 -120 12 t-85 29v2q0 137 23 235h118l27 -182q10 -2 35 -2q32 0 57.5 14t45 43.5t30.5 52.5t27 64l63 166l-391 864q-4 0 -19 2t-43.5 7.5t-50.5 13.5z" />
<glyph unicode="z" horiz-adv-x="1005" d="M115 0v94l577 740h-395l-43 -185h-119q-12 49 -12 170l2 109h766v-94h-2l-592 -740h432l43 185h119q12 -55 12 -152l-2 -127h-786z" />
<glyph unicode="{" horiz-adv-x="632" d="M57 612v103q56 0 93.5 12t58.5 30.5t32 55t14 72t3 94.5q2 114 2 317q0 150 75 215.5t263 65.5v-90q-59 0 -97 -12.5t-56 -39t-24.5 -56.5t-6.5 -76v-361q0 -113 -25.5 -179t-77.5 -99q103 -65 103 -279v-362q0 -46 6.5 -76.5t24.5 -57t56 -39t97 -12.5v-90 q-189 0 -263.5 64.5t-74.5 216.5l-2 319q0 59 -3 94.5t-14 72t-32 55t-58.5 30.5t-93.5 12z" />
<glyph unicode="|" horiz-adv-x="1306" d="M47 6l6 84h140q71 5 124 66l11 12l2 2l248 293l-142 246l-4 6q-18 32 -28 48t-25.5 36t-31.5 28.5t-34 8.5q-72 0 -86 -56l-24 -114h-78q-10 32 -10 75l2 37q7 48 24.5 83t37.5 52.5t48.5 28t49 12.5t47.5 2q105 0 172 -73q26 -30 61.5 -82.5t46.5 -73.5l86 -152l166 205 q14 22 41 51q115 125 231 125q33 0 64.5 -7.5t47.5 -14.5l15 -8l-6 -84h-139q-61 -4 -119 -62l-246 -299l152 -260l21 -35h-3q27 -46 50.5 -69t54.5 -23q72 0 86 56l24 114h78q11 -33 11 -76l-2 -36q-7 -48 -24.5 -83t-37.5 -53t-48.5 -28t-49 -12.5t-47.5 -2.5 q-104 0 -172 74q-26 31 -65 88t-50 78l-88 152l-201 -230q-10 -17 -28 -35q-115 -125 -232 -125q-33 0 -64.5 7.5t-47.5 15.5z" />
<glyph unicode="}" horiz-adv-x="663" d="M57 -162q59 0 97 12.5t56.5 39t25 57t6.5 76.5v362q0 114 24 180t76 99q-52 33 -76 98.5t-24 179.5v361q0 46 -6.5 76t-25 56.5t-56.5 39t-97 12.5v90q188 0 263 -65.5t75 -215.5l2 -317q0 -59 3 -94.5t14 -72t32 -55t58.5 -30.5t93.5 -12v-103q-56 0 -93.5 -12 t-58.5 -30.5t-32 -55t-14 -72t-3 -94.5q-2 -116 -2 -319q0 -152 -74.5 -216.5t-263.5 -64.5v90z" />
<glyph unicode="&#xa1;" horiz-adv-x="409" d="M102 1364q0 54 23.5 79t79.5 25t80 -25t24 -79q0 -51 -24.5 -77.5t-79.5 -26.5t-79 26t-24 78zM109 -53q18 946 41 1143h112q10 -88 20.5 -373.5t15.5 -527.5l5 -242h-194z" />
<glyph unicode="&#xa8;" horiz-adv-x="684" d="M78 1264q0 48 21.5 72t70.5 24q52 0 74 -24t22 -72q0 -49 -22 -73t-74 -24q-49 0 -70.5 24t-21.5 73zM426 1264q0 48 21.5 72t70.5 24q52 0 74 -24t22 -72q0 -49 -22 -73t-74 -24q-49 0 -70.5 24t-21.5 73z" />
<glyph unicode="&#xaa;" horiz-adv-x="1619" d="M82 498q0 158 79 238.5t210 80.5q101 0 197 -47t225 -182l20 -23l23 23l65 65l74 62q48 36 76 49q20 12 30 16q3 0 11 4l18 9q47 15 102 22q7 0 22 1t23 1q6 0 18.5 -1t18.5 -1q2 0 5.5 -1t5.5 -1q19 0 34 -6q83 -18 140 -84l18 -29q20 -32 27 -55q4 -8 4 -12l10 -39 q8 -54 8 -90q0 -40 -6 -78q-4 -34 -24 -88q-15 -35 -37 -60q-73 -91 -209 -94h-31q-19 0 -27 2q-5 0 -13.5 1t-12.5 1l-19 4q-6 0 -18 4q-19 4 -57 21q-3 0 -11 4q-20 8 -30 14l-21 13l-33 22q-10 5 -22 17q-13 8 -47 38l-27 23l-24 25q-6 5 -13 12t-15 15.5t-13 13.5 l-23 20l-20 -20q-129 -136 -225 -183t-197 -47q-131 0 -210 81t-79 239zM238 498q0 -213 178 -213q104 0 317 213q-209 213 -317 213q-178 0 -178 -213zM893 498l41 -39l27 -27q97 -86 159 -119q30 -17 51 -22q18 -6 33 -6h8q23 0 33 2q11 0 27 4q8 2 24 10l13 6q1 0 2 1 t2 1q4 4 6 4l10 9l21 20l16 27l6 14l6 18q13 44 13 97v12q0 16 -2 22v13q0 2 -1.5 5.5t-1.5 4.5l-4 20q-6 22 -8 27q0 2 -1 4.5t-1 3.5l-6 15q-1 4 -4.5 8.5t-3.5 5.5q-4 4 -8 12q-1 1 -3.5 4t-4 4.5t-3.5 2.5q-16 16 -26 22q-2 2 -8.5 5t-8.5 5q-8 4 -24 8q-19 6 -47 9h-21 q-2 0 -7.5 -1t-8.5 -1l-33 -11l-16 -6q-8 -4 -9 -4l-36 -20l-37 -25q-6 -5 -18 -13.5t-22 -16.5t-18 -15l-45 -41l-18 -18l-37 -35z" />
<glyph unicode="&#xad;" horiz-adv-x="559" d="M63 430v137h433v-137h-433z" />
<glyph unicode="&#xb1;" d="M117 0v137h999v-137h-999zM117 645v137h430v371h137v-371h432v-137h-432v-369h-137v369h-430z" />
<glyph unicode="&#xb4;" horiz-adv-x="880" d="M279 1085q2 9 17.5 40t59.5 95t103 132h215l-303 -267h-92z" />
<glyph unicode="&#xb7;" horiz-adv-x="389" d="M90 498q0 51 27.5 78.5t79.5 27.5q106 0 106 -106q0 -51 -27 -79t-79 -28t-79.5 28t-27.5 79z" />
<glyph unicode="&#xba;" horiz-adv-x="1280" d="M45 672v67q0 29 33 29h829v100q0 16 1.5 25t10 17t23.5 8q19 0 49 -15q12 -3 93.5 -57t125.5 -90q1 -1 9 -7.5t10 -9t6.5 -8t6 -11.5t1.5 -13q0 -6 -1.5 -11.5t-3 -9t-6.5 -9t-6.5 -7t-8 -7t-7.5 -6.5q-43 -36 -124.5 -90t-94.5 -57q-21 -14 -49 -14q-21 0 -28 11t-7 32 v104h-829q-33 0 -33 29z" />
<glyph unicode="&#xbc;" horiz-adv-x="1443" d="M14 1200v57l240 78h63v-729q70 0 158 -20v-72h-432v72q39 9 78.5 14t59.5 6h20v606q-100 -14 -160 -14q-13 0 -27 2zM268 -27l791 1397h127l-791 -1397h-127zM737 211v92l381 518h131v-518h140v-92h-140v-121q43 -3 117 -18v-72h-348v72q69 15 117 18v121h-398zM844 303 h291v402z" />
<glyph unicode="&#xbd;" horiz-adv-x="1570" d="M37 1200v57l239 78h64v-729q70 0 158 -20v-72h-432v72q39 9 78.5 14t59.5 6h19v606q-100 -14 -160 -14q-12 0 -26 2zM279 -27l790 1397h127l-790 -1397h-127zM985 0v109l330 366q43 58 56 93.5t13 74.5q0 115 -151 115q-49 0 -121 -13l-20 -133h-82q-9 35 -14 78.5 t-6 69.5l-1 26q106 50 250 50q152 0 219.5 -44.5t67.5 -136.5q0 -60 -28.5 -116.5t-98.5 -139.5q-22 -29 -110.5 -128t-160.5 -173h279q12 70 27 119h79l11 -217h-539z" />
<glyph unicode="&#xbe;" horiz-adv-x="1554" d="M47 610q0 80 10 115h76l27 -129q74 -25 143 -25q90 0 130 48.5t40 121.5q0 29 -8 55.5t-27.5 53.5t-59.5 43t-97 16h-9q-49 -2 -63 -6v86q21 -6 84 -6q84 3 118.5 42.5t34.5 96.5q0 68 -32.5 105t-118.5 37q-69 0 -123 -15l-27 -125h-75q0 4 -3.5 21t-5.5 35t-2 34 q0 55 2 78q103 49 244 49q147 0 212 -54.5t65 -164.5q0 -113 -131 -164q163 -48 163 -217q0 -105 -77.5 -176t-225.5 -71q-142 0 -262 63q-2 12 -2 53zM350 -27l791 1397h127l-791 -1397h-127zM842 211v92l381 518h131v-518h139v-92h-139v-121q42 -3 116 -18v-72h-348v72 q69 15 117 18v121h-397zM948 303h291v402z" />
<glyph unicode="&#xbf;" horiz-adv-x="1058" d="M72 365q0 105 15 182t39 126t68 86t87 57.5t112 43.5q52 17 89.5 37t56 35.5t30 35.5t13.5 30t4 26l10 98h117q8 -84 8 -92q0 -63 -10.5 -103t-42 -72t-69.5 -53t-112 -54q-47 -21 -82 -43.5t-59 -42.5t-40 -48.5t-25 -50.5t-13 -59.5t-5 -64t-1 -74.5q0 -42 5.5 -77 t25.5 -75.5t52.5 -68.5t91.5 -47t138 -19q106 0 201 31l23 268h145q11 -32 24 -107.5t20 -134.5l7 -59q-148 -103 -420 -103q-503 0 -503 392zM549 1362q0 54 23 79t79 25t79.5 -25t23.5 -79q0 -52 -24 -78.5t-79 -26.5t-78.5 26.5t-23.5 78.5z" />
<glyph unicode="&#xc0;" horiz-adv-x="1404" d="M10 0v84q53 19 119 25l502 1253h147l494 -1253q64 -6 123 -25v-84h-484v84q60 22 160 29l-145 383h-500l-150 -383q94 -4 166 -29v-84h-432zM451 1761h215q59 -68 103 -132t59.5 -94.5t17.5 -39.5h-92zM467 602h418l-207 547v-2z" />
<glyph unicode="&#xc1;" horiz-adv-x="1404" d="M10 0v84q53 19 119 25l502 1253h147l494 -1253q64 -6 123 -25v-84h-484v84q60 22 160 29l-145 383h-500l-150 -383q94 -4 166 -29v-84h-432zM467 602h418l-207 547v-2zM565 1495q2 9 17.5 39.5t59.5 94.5t103 132h216l-304 -266h-92z" />
<glyph unicode="&#xc4;" horiz-adv-x="1404" d="M10 0v84q53 19 119 25l502 1253h147l494 -1253q64 -6 123 -25v-84h-484v84q60 22 160 29l-145 383h-500l-150 -383q94 -4 166 -29v-84h-432zM436 1667q0 48 21.5 72t70.5 24q52 0 74.5 -24t22.5 -72q0 -49 -22.5 -72.5t-74.5 -23.5q-50 0 -71 23.5t-21 72.5zM467 602h418 l-207 547v-2zM784 1667q0 96 93 96q52 0 74 -24t22 -72q0 -49 -22 -72.5t-74 -23.5q-50 0 -71.5 23.5t-21.5 72.5z" />
<glyph unicode="&#xc7;" horiz-adv-x="1288" d="M61 688q0 690 644 690q179 0 311 -45.5t186 -97.5q4 -31 4 -125q0 -118 -16 -166h-146l-49 232q-39 42 -115.5 67t-174.5 25q-85 0 -150 -15.5t-121 -55t-92 -104.5t-56 -166.5t-20 -238.5q0 -143 22 -250t59.5 -174t94.5 -108t120 -56.5t143 -15.5q98 0 174.5 25 t115.5 67l49 232h146q16 -48 16 -166q0 -94 -4 -125q-54 -52 -186 -98t-311 -46q-34 0 -48 2v-110q207 0 207 -156q0 -83 -62 -119t-159 -36q-71 0 -106 12.5t-68 42.5q-2 8 -2 43q0 66 18 94h64l8 -111q11 -10 36 -16t42 -6q49 0 74.5 26t25.5 70q0 92 -100 92 q-49 0 -67.5 8t-18.5 41v136q-114 17 -202 64.5t-153 130.5t-99 210.5t-34 296.5z" />
<glyph unicode="&#xc8;" horiz-adv-x="1236" d="M98 0v84q23 8 57.5 15t57.5 9l23 3v1130q-87 9 -138 27v84h1030q2 -44 2 -95q0 -46 -4 -117.5t-10 -95.5h-102l-37 201h-563v-483h334l28 166h84q7 -36 11.5 -89.5t4.5 -88.5l1 -35q-1 -131 -17 -213h-84l-28 162h-334v-558h563l37 201h102q6 -24 10 -95.5t4 -117.5 l-2 -94h-1030zM362 1761h216q59 -68 103 -132t59.5 -94.5t17.5 -39.5h-92z" />
<glyph unicode="&#xc9;" horiz-adv-x="1236" d="M98 0v84q23 8 57.5 15t57.5 9l23 3v1130q-87 9 -138 27v84h1030q2 -44 2 -95q0 -46 -4 -117.5t-10 -95.5h-102l-37 201h-563v-483h334l28 166h84q7 -36 11.5 -89.5t4.5 -88.5l1 -35q-1 -131 -17 -213h-84l-28 162h-334v-558h563l37 201h102q6 -24 10 -95.5t4 -117.5 l-2 -94h-1030zM666 1495q2 9 17.5 39.5t59.5 94.5t103 132h215l-303 -266h-92z" />
<glyph unicode="&#xcb;" horiz-adv-x="1236" d="M98 0v84q23 8 57.5 15t57.5 9l23 3v1130q-87 9 -138 27v84h1030q2 -44 2 -95q0 -46 -4 -117.5t-10 -95.5h-102l-37 201h-563v-483h334l28 166h84q7 -36 11.5 -89.5t4.5 -88.5l1 -35q-1 -131 -17 -213h-84l-28 162h-334v-558h563l37 201h102q6 -24 10 -95.5t4 -117.5 l-2 -94h-1030zM377 1667q0 48 21.5 72t70.5 24q52 0 74 -24t22 -72q0 -49 -22 -72.5t-74 -23.5q-50 0 -71 23.5t-21 72.5zM725 1667q0 48 21.5 72t70.5 24q52 0 74 -24t22 -72q0 -49 -22 -72.5t-74 -23.5q-50 0 -71 23.5t-21 72.5z" />
<glyph unicode="&#xcc;" horiz-adv-x="669" d="M98 1761h215q59 -68 103.5 -132t60 -94.5t17.5 -39.5h-93zM100 0v84q81 24 148 29v1126q-81 4 -148 29v84h471v-84q-61 -23 -145 -29v-1128q73 -6 145 -27v-84h-471z" />
<glyph unicode="&#xcd;" horiz-adv-x="681" d="M98 0v84q81 24 148 29v1126q-81 4 -148 29v84h471v-84q-61 -23 -145 -29v-1128q73 -6 145 -27v-84h-471zM188 1495q2 9 17.5 39.5t60 94.5t103.5 132h215l-303 -266h-93z" />
<glyph unicode="&#xcf;" horiz-adv-x="733" d="M98 1667q0 48 21.5 72t70.5 24q52 0 74.5 -24t22.5 -72q0 -49 -22.5 -72.5t-74.5 -23.5q-50 0 -71 23.5t-21 72.5zM131 0v84q81 24 148 29v1126q-81 4 -148 29v84h471v-84q-61 -23 -145 -29v-1128q73 -6 145 -27v-84h-471zM446 1667q0 96 93 96q52 0 74 -24t22 -72 q0 -49 -22 -72.5t-74 -23.5q-50 0 -71.5 23.5t-21.5 72.5z" />
<glyph unicode="&#xd1;" horiz-adv-x="1552" d="M106 0v84q81 24 148 29v1126q-81 7 -137 29v84h385l674 -1057v942q-101 4 -179 31v84h453v-84q-62 -23 -137 -29v-1239h-152l-770 1194v-1081q98 -4 170 -29v-84h-455zM436 1516q0 100 47 160.5t154 60.5q51 0 145 -37q102 -39 164 -39q98 0 98 106h84q0 -101 -47 -165 t-153 -64q-52 0 -146 35q-103 41 -164 41q-98 0 -98 -98h-84z" />
<glyph unicode="&#xd2;" horiz-adv-x="1486" d="M104 688q0 690 639 690t639 -690h-204q0 117 -14 208.5t-42.5 154t-65.5 106t-88 67.5t-104.5 34t-120.5 10t-120.5 -10t-104.5 -34t-87.5 -67t-65 -106t-42.5 -154.5t-14 -208.5q0 -141 21 -247t58 -173.5t93 -109t119 -58t143 -16.5t143 16.5t119.5 58t93 109t58 173.5 t21.5 247h204q0 -159 -33.5 -283t-91 -204.5t-140 -132.5t-174 -73.5t-200.5 -21.5t-200.5 21.5t-174 73.5t-140 132.5t-91 204.5t-33.5 283zM389 1761h215q59 -68 103 -132t59.5 -94.5t17.5 -39.5h-92z" />
<glyph unicode="&#xd3;" horiz-adv-x="1486" d="M104 688q0 690 639 690t639 -690h-204q0 117 -14 208.5t-42.5 154t-65.5 106t-88 67.5t-104.5 34t-120.5 10t-120.5 -10t-104.5 -34t-87.5 -67t-65 -106t-42.5 -154.5t-14 -208.5q0 -141 21 -247t58 -173.5t93 -109t119 -58t143 -16.5t143 16.5t119.5 58t93 109t58 173.5 t21.5 247h204q0 -159 -33.5 -283t-91 -204.5t-140 -132.5t-174 -73.5t-200.5 -21.5t-200.5 21.5t-174 73.5t-140 132.5t-91 204.5t-33.5 283zM684 1495q2 9 17.5 39.5t59.5 94.5t103 132h215l-303 -266h-92z" />
<glyph unicode="&#xd6;" horiz-adv-x="1486" d="M104 688q0 690 639 690t639 -690q0 -159 -33.5 -283t-91 -204.5t-140 -132.5t-174 -73.5t-200.5 -21.5t-200.5 21.5t-174 73.5t-140 132.5t-91 204.5t-33.5 283zM309 688q0 -141 21 -247t58 -173.5t93 -109t119 -58t143 -16.5t143 16.5t119.5 58t93 109t58 173.5 t21.5 247q0 117 -14 208.5t-42.5 154t-65.5 106t-88 67.5t-104.5 34t-120.5 10t-120.5 -10t-104.5 -34t-87.5 -67t-65 -106t-42.5 -154.5t-14 -208.5zM477 1667q0 48 21.5 72t70.5 24q52 0 74.5 -24t22.5 -72q0 -49 -22.5 -72.5t-74.5 -23.5q-50 0 -71 23.5t-21 72.5z M825 1667q0 96 93 96q52 0 74 -24t22 -72q0 -49 -22 -72.5t-74 -23.5q-50 0 -71.5 23.5t-21.5 72.5z" />
<glyph unicode="&#xd7;" d="M193 131l350 358l-350 361l90 90l348 -358l350 358l90 -90l-350 -361l350 -358l-90 -90l-350 358l-348 -358z" />
<glyph unicode="&#xd8;" horiz-adv-x="1486" d="M104 688q0 690 639 690q194 0 328 -63l70 110h149l-112 -178q204 -166 204 -559q0 -159 -33.5 -283t-91 -204.5t-140 -132.5t-174 -73.5t-200.5 -21.5q-188 0 -327 68l-74 -119h-147l116 187q-207 178 -207 579zM309 688q0 -292 90 -440l602 956q-98 64 -258 64 q-67 0 -120.5 -10t-104.5 -34t-87.5 -67t-65 -106t-42.5 -154.5t-14 -208.5zM487 154q96 -70 256 -70q80 0 143 16.5t119.5 58t93 109t58 173.5t21.5 247q0 281 -88 422z" />
<glyph unicode="&#xd9;" horiz-adv-x="1472" d="M51 1268v84h473v-84q-66 -23 -155 -27v-762q0 -192 97.5 -293.5t291.5 -101.5q389 0 389 395v758q-99 4 -178 31v84h452v-84q-62 -23 -137 -29v-760q0 -242 -129.5 -374t-396.5 -132q-138 0 -240.5 26.5t-177.5 85t-112.5 157t-37.5 237.5v762q-89 7 -139 27zM399 1761 h215q59 -68 103.5 -132t60 -94.5t17.5 -39.5h-93z" />
<glyph unicode="&#xda;" horiz-adv-x="1472" d="M51 1268v84h473v-84q-66 -23 -155 -27v-762q0 -192 97.5 -293.5t291.5 -101.5q389 0 389 395v758q-99 4 -178 31v84h452v-84q-62 -23 -137 -29v-760q0 -242 -129.5 -374t-396.5 -132q-138 0 -240.5 26.5t-177.5 85t-112.5 157t-37.5 237.5v762q-89 7 -139 27zM694 1495 q2 9 17.5 39.5t59.5 94.5t103 132h216l-304 -266h-92z" />
<glyph unicode="&#xdc;" horiz-adv-x="1472" d="M51 1268v84h473v-84q-66 -23 -155 -27v-762q0 -192 97.5 -293.5t291.5 -101.5q389 0 389 395v758q-99 4 -178 31v84h452v-84q-62 -23 -137 -29v-760q0 -242 -129.5 -374t-396.5 -132q-138 0 -240.5 26.5t-177.5 85t-112.5 157t-37.5 237.5v762q-89 7 -139 27zM489 1667 q0 96 93 96q52 0 74 -24t22 -72q0 -49 -22 -72.5t-74 -23.5q-50 0 -71.5 23.5t-21.5 72.5zM838 1667q0 48 21.5 72t70.5 24q52 0 74 -24t22 -72q0 -49 -22 -72.5t-74 -23.5q-50 0 -71 23.5t-21 72.5z" />
<glyph unicode="&#xdf;" horiz-adv-x="1171" d="M90 0l60 168l264 1221q-6 0 -27.5 1.5t-58 7t-56.5 13.5l17 84h299l-146 -680q148 139 344 139q72 0 127 -17.5t88 -46t54.5 -69t29 -80.5t7.5 -86q0 -24 -1 -45.5t-4 -43t-5 -34t-7 -36t-6 -31.5q-47 -230 -171 -361t-318 -131q-206 0 -297 136l-33 -58q-7 -11 -18 -24 t-18 -20l-7 -7h-117zM313 207q94 -121 248 -121q111 0 201 100.5t131 278.5q20 71 20 153q0 224 -190 224q-148 0 -303 -135z" />
<glyph unicode="&#xe0;" horiz-adv-x="1103" d="M102 270q0 243 304 260q33 2 339 2v82q-3 136 -57 191t-170 55q-102 0 -190 -20l-29 -191h-125q-8 23 -13.5 83t-6.5 108l-2 49q177 65 366 65q213 0 299 -83t86 -257v-508q88 -4 139 -22v-84h-297v143q-27 -33 -54 -58t-69 -53t-99 -43.5t-124 -15.5q-80 0 -138.5 23 t-92.5 64.5t-50 93.5t-16 116zM205 1352h215q59 -68 103 -132t59.5 -95t17.5 -40h-92zM260 270q0 -78 46.5 -129t142.5 -51q86 0 163.5 46t132.5 112v194h-102q-160 0 -199 -2q-98 -3 -141 -52t-43 -118z" />
<glyph unicode="&#xe1;" horiz-adv-x="1103" d="M102 270q0 243 304 260q33 2 339 2v82q-3 136 -57 191t-170 55q-102 0 -190 -20l-29 -191h-125q-8 23 -13.5 83t-6.5 108l-2 49q177 65 366 65q213 0 299 -83t86 -257v-508q88 -4 139 -22v-84h-297v143q-27 -33 -54 -58t-69 -53t-99 -43.5t-124 -15.5q-80 0 -138.5 23 t-92.5 64.5t-50 93.5t-16 116zM260 270q0 -78 46.5 -129t142.5 -51q86 0 163.5 46t132.5 112v194h-102q-160 0 -199 -2q-98 -3 -141 -52t-43 -118zM475 1085q2 9 17.5 40t59.5 95t103 132h215l-303 -267h-92z" />
<glyph unicode="&#xe2;" horiz-adv-x="1103" d="M102 270q0 243 304 260q33 2 339 2v82q-3 136 -57 191t-170 55q-102 0 -190 -20l-29 -191h-125q-8 23 -13.5 83t-6.5 108l-2 49q177 65 366 65q213 0 299 -83t86 -257v-508q88 -4 139 -22v-84h-297v143q-27 -33 -54 -58t-69 -53t-99 -43.5t-124 -15.5q-80 0 -138.5 23 t-92.5 64.5t-50 93.5t-16 116zM231 1085q2 11 17 41t62.5 94t113.5 132q35 14 94 14q61 0 96 -14q66 -68 113.5 -132t62.5 -94t17 -41h-92l-197 183l-194 -183h-93zM260 270q0 -78 46.5 -129t142.5 -51q86 0 163.5 46t132.5 112v194h-102q-160 0 -199 -2q-98 -3 -141 -52 t-43 -118z" />
<glyph unicode="&#xe4;" horiz-adv-x="1103" d="M102 270q0 243 304 260q33 2 339 2v82q-3 136 -57 191t-170 55q-102 0 -190 -20l-29 -191h-125q-8 23 -13.5 83t-6.5 108l-2 49q177 65 366 65q213 0 299 -83t86 -257v-508q88 -4 139 -22v-84h-297v143q-27 -33 -54 -58t-69 -53t-99 -43.5t-124 -15.5q-80 0 -138.5 23 t-92.5 64.5t-50 93.5t-16 116zM248 1217q0 48 21.5 72t70.5 24q52 0 74 -24t22 -72q0 -49 -22 -73t-74 -24q-49 0 -70.5 24t-21.5 73zM260 270q0 -78 46.5 -129t142.5 -51q86 0 163.5 46t132.5 112v194h-102q-160 0 -199 -2q-98 -3 -141 -52t-43 -118zM596 1217 q0 48 21.5 72t70.5 24q52 0 74 -24t22 -72q0 -49 -22 -73t-74 -24q-49 0 -70.5 24t-21.5 73z" />
<glyph unicode="&#xe5;" horiz-adv-x="1134" d="M82 283q0 99 22 209q24 110 67.5 194.5t93.5 134t112.5 80.5t117 42t113.5 11q99 0 172 -29t107 -71q18 36 28 51q7 11 18 24t18 20l7 7h117l-57 -157l-146 -699l2 6q97 -4 144 -22l-17 -84h-305l25 119q-162 -146 -344 -146q-292 0 -295 310zM250 289q2 -93 49 -142 t152 -49q164 0 305 183l100 458q-9 15 -23.5 30.5t-39 33t-61.5 28.5t-81 11q-85 0 -150 -27t-107 -79t-68.5 -112t-46.5 -141q-29 -116 -29 -194z" />
<glyph unicode="&#xe7;" horiz-adv-x="995" d="M90 467q0 264 114.5 375.5t373.5 111.5q113 0 203.5 -31.5t140.5 -70.5q4 -20 4 -86q0 -93 -8 -117h-130l-36 160q-81 51 -187 51q-67 0 -117.5 -17t-94 -58.5t-67 -122t-24.5 -197.5q0 -95 16 -166t43 -114.5t67 -70.5t82 -36.5t95 -9.5q88 0 187 30l55 174h129 q4 -16 4 -39q0 -31 -6 -91.5t-12 -78.5q-150 -90 -357 -90h-8v-100q90 0 125 -26t35 -83q0 -62 -49 -87t-119 -25q-84 0 -129 41q-2 8 -2 31q0 43 12 67h43l8 -80q14 -14 60 -14q86 0 86 74q-3 57 -86 57q-33 0 -46.5 6t-13.5 29v114q-203 17 -297 132.5t-94 357.5z" />
<glyph unicode="&#xe8;" horiz-adv-x="1071" d="M106 465q0 123 30 215.5t74 143t107 81.5t116.5 40t115.5 9q67 0 124.5 -10.5t113 -38t94 -71t63 -114t25.5 -161.5v-94h-690q0 -97 16 -168.5t42.5 -115t67.5 -69.5t83.5 -35t97.5 -9q94 0 186 28l57 193h129q3 -18 3 -53q0 -46 -7.5 -104t-13.5 -75q-164 -84 -354 -84 q-246 0 -363 115.5t-117 376.5zM283 559h514q-3 303 -248 303q-127 0 -190 -77.5t-76 -225.5zM360 1352h215q59 -68 103.5 -132t60 -95t17.5 -40h-92z" />
<glyph unicode="&#xe9;" horiz-adv-x="1062" d="M106 465q0 90 15 163.5t39.5 123.5t61 87.5t74 59t83.5 34.5t84 17t82 4q72 0 130.5 -10.5t113.5 -38t91.5 -71.5t58.5 -116t22 -167v-86h-682q0 -119 23.5 -200t67.5 -122.5t94.5 -58t117.5 -16.5q94 0 182 28l57 199h129q2 -24 2 -59q0 -46 -7.5 -104.5t-12.5 -74.5 q-164 -84 -350 -84q-248 0 -362 113.5t-114 378.5zM281 551h507q0 166 -54.5 238.5t-188.5 72.5q-132 0 -192.5 -77.5t-71.5 -233.5zM414 1085q1 10 17 41t60 94.5t103 131.5h215l-303 -267h-92z" />
<glyph unicode="&#xea;" horiz-adv-x="1067" d="M106 465q0 123 30 215.5t74 143t107 81.5t116.5 40t115.5 9q67 0 124.5 -10.5t113 -38t94 -71t63 -114t25.5 -161.5v-94h-690q0 -97 16 -168.5t42.5 -115t67.5 -69.5t83.5 -35t97.5 -9q94 0 186 28l57 193h129q3 -18 3 -53q0 -46 -7.5 -104t-13.5 -75q-164 -84 -354 -84 q-246 0 -363 115.5t-117 376.5zM254 1085q2 11 17 41t62 94t113 132q35 14 95 14q61 0 96 -14q66 -68 113 -132t62 -94t17 -41h-92l-196 183l-195 -183h-92zM283 559h514q-3 303 -248 303q-127 0 -190 -77.5t-76 -225.5z" />
<glyph unicode="&#xeb;" horiz-adv-x="1071" d="M106 465q0 123 30 215.5t74 143t107 81.5t116.5 40t115.5 9q67 0 124.5 -10.5t113 -38t94 -71t63 -114t25.5 -161.5v-94h-690q0 -97 16 -168.5t42.5 -115t67.5 -69.5t83.5 -35t97.5 -9q94 0 186 28l57 193h129q3 -18 3 -53q0 -46 -7.5 -104t-13.5 -75q-164 -84 -354 -84 q-246 0 -363 115.5t-117 376.5zM283 559h514q-3 303 -248 303q-127 0 -190 -77.5t-76 -225.5zM285 1217q0 48 21.5 72t70.5 24q52 0 74 -24t22 -72q0 -49 -22 -73t-74 -24q-49 0 -70.5 24t-21.5 73zM633 1217q0 48 21.5 72t70.5 24q52 0 74 -24t22 -72q0 -49 -22 -73 t-74 -24q-49 0 -70.5 24t-21.5 73z" />
<glyph unicode="&#xec;" horiz-adv-x="704" d="M92 1352h215q59 -68 103 -132t59.5 -95t17.5 -40h-92zM166 0v84q23 8 60 13.5t63 6.5l26 2v715q-98 5 -149 23v84h307v-822q99 -4 150 -22v-84h-457z" />
<glyph unicode="&#xed;" horiz-adv-x="630" d="M92 0v84q23 8 60.5 13.5t63.5 6.5l26 2v715q-99 5 -150 23v84h307v-822q99 -4 150 -22v-84h-457zM119 1085q2 9 17.5 40t59.5 95t103 132h215l-303 -267h-92z" />
<glyph unicode="&#xee;" horiz-adv-x="759" d="M102 1085q2 11 17 41t62.5 94t113.5 132q35 14 94 14q61 0 96 -14q66 -68 113.5 -132t62.5 -94t17 -41h-92l-197 183l-194 -183h-93zM215 0v84q23 8 60.5 13.5t63.5 6.5l26 2v715q-99 5 -150 23v84h307v-822q99 -4 150 -22v-84h-457z" />
<glyph unicode="&#xef;" horiz-adv-x="714" d="M92 1217q0 48 21.5 72t70.5 24q52 0 74.5 -24t22.5 -72q0 -49 -22.5 -73t-74.5 -24q-49 0 -70.5 24t-21.5 73zM176 0v84q23 8 60.5 13.5t63.5 6.5l26 2v715q-99 5 -150 23v84h307v-822q99 -4 150 -22v-84h-457zM440 1217q0 48 21.5 72t70.5 24q52 0 74.5 -24t22.5 -72 q0 -49 -22.5 -73t-74.5 -24q-49 0 -70.5 24t-21.5 73z" />
<glyph unicode="&#xf1;" horiz-adv-x="1286" d="M102 0h457v84q-23 8 -60 13.5t-63 6.5l-26 2v572q55 61 139.5 105t173.5 44q105 0 150 -50.5t45 -129.5v-541q-99 -4 -150 -22v-84h457v84q-23 8 -60.5 13.5t-63.5 6.5l-26 2v541q0 136 -71.5 221.5t-225.5 85.5q-222 0 -368 -172v146h-308v-84q23 -8 60.5 -14t63.5 -8 l26 -1v-715q-99 -4 -150 -22v-84zM319 1092q0 100 47 160.5t154 60.5q52 0 146 -37q102 -39 163 -39q45 0 72 26t27 80h84q0 -101 -47.5 -165t-153.5 -64q-51 0 -145 35q-102 41 -164 41q-99 0 -99 -98h-84z" />
<glyph unicode="&#xf2;" horiz-adv-x="1140" d="M106 465q0 116 27.5 204.5t71 142t106 87t124.5 45.5t134 12t134.5 -12t125 -45.5t106.5 -87t71.5 -142t27.5 -204.5t-27.5 -204.5t-71.5 -142t-106.5 -87.5t-125 -46t-134.5 -12t-134 12t-124.5 46t-106 87.5t-71 142t-27.5 204.5zM279 465q0 -199 69.5 -299t220.5 -100 t222 100t71 299t-71 299t-222 100t-220.5 -100t-69.5 -299zM373 1352h215q59 -68 103 -132t59.5 -95t17.5 -40h-92z" />
<glyph unicode="&#xf3;" horiz-adv-x="1179" d="M106 463q0 133 32.5 228.5t96.5 152.5t151 83.5t204 26.5q237 0 360 -115t123 -376q0 -133 -32.5 -228t-96 -152t-150.5 -83.5t-204 -26.5q-238 0 -361 115t-123 375zM279 463q0 -114 20.5 -192t62.5 -122.5t97 -63.5t131 -19t131 19t97 63.5t62.5 122.5t20.5 192 t-20.5 192.5t-62.5 123.5t-97 64t-131 19t-131 -19t-97 -64t-62.5 -123.5t-20.5 -192.5zM528 1085q2 9 17.5 40t60 95t103.5 132h215l-303 -267h-93z" />
<glyph unicode="&#xf4;" horiz-adv-x="1179" d="M106 463q0 133 32.5 228.5t96.5 152.5t151 83.5t204 26.5q237 0 360 -115t123 -376q0 -133 -32.5 -228t-96 -152t-150.5 -83.5t-204 -26.5q-238 0 -361 115t-123 375zM279 463q0 -114 20.5 -192t62.5 -122.5t97 -63.5t131 -19t131 19t97 63.5t62.5 122.5t20.5 192 t-20.5 192.5t-62.5 123.5t-97 64t-131 19t-131 -19t-97 -64t-62.5 -123.5t-20.5 -192.5zM309 1085q2 11 17 41t62.5 94t113.5 132q35 14 94 14q61 0 96 -14q66 -68 113.5 -132t62.5 -94t17 -41h-92l-197 183l-195 -183h-92z" />
<glyph unicode="&#xf6;" horiz-adv-x="1140" d="M106 465q0 116 27.5 204.5t71 142t106 87t124.5 45.5t134 12t134.5 -12t125 -45.5t106.5 -87t71.5 -142t27.5 -204.5t-27.5 -204.5t-71.5 -142t-106.5 -87.5t-125 -46t-134.5 -12t-134 12t-124.5 46t-106 87.5t-71 142t-27.5 204.5zM279 465q0 -199 69.5 -299t220.5 -100 t222 100t71 299t-71 299t-222 100t-220.5 -100t-69.5 -299zM301 1217q0 48 21.5 72t70.5 24q52 0 74 -24t22 -72q0 -49 -22 -73t-74 -24q-49 0 -70.5 24t-21.5 73zM649 1217q0 48 21.5 72t70.5 24q52 0 74.5 -24t22.5 -72q0 -49 -22.5 -73t-74.5 -24q-49 0 -70.5 24 t-21.5 73z" />
<glyph unicode="&#xf7;" d="M111 430v137h999v-137h-999zM506 197q0 106 106 106q52 0 79.5 -27.5t27.5 -78.5t-27.5 -79t-79.5 -28t-79 28t-27 79zM506 801q0 106 106 106q52 0 79.5 -27.5t27.5 -78.5t-27.5 -79t-79.5 -28t-79 28t-27 79z" />
<glyph unicode="&#xf8;" horiz-adv-x="1107" d="M90 465q0 116 27.5 204.5t71 142t106 87t124.5 45.5t134 12q130 0 223 -41l47 74h129l-82 -129q148 -124 148 -395q0 -116 -27.5 -204.5t-71.5 -142t-106.5 -87.5t-125 -46t-134.5 -12q-128 0 -219 39l-53 -84h-127l86 138q-150 126 -150 399zM262 465q0 -184 55 -277 l400 633q-64 43 -164 43q-151 0 -221 -100t-70 -299zM393 106q57 -40 160 -40q151 0 222 100t71 299q0 170 -53 270z" />
<glyph unicode="&#xf9;" horiz-adv-x="1255" d="M61 844v84h308v-647q0 -78 43 -129.5t141 -51.5q88 0 171 37.5t134 91.5v592q-98 5 -149 23v84h307v-822q98 -4 149 -22v-84h-307v121q-54 -60 -144 -104t-216 -44q-150 0 -218.5 83.5t-68.5 224.5v540q-99 5 -150 23zM365 1352h215q59 -68 103 -132t59.5 -95t17.5 -40 h-92z" />
<glyph unicode="&#xfa;" horiz-adv-x="1255" d="M61 844v84h308v-647q0 -78 43 -129.5t141 -51.5q88 0 171 37.5t134 91.5v592q-98 5 -149 23v84h307v-822q98 -4 149 -22v-84h-307v121q-54 -60 -144 -104t-216 -44q-150 0 -218.5 83.5t-68.5 224.5v540q-99 5 -150 23zM406 1085q2 9 17.5 40t59.5 95t103 132h215 l-303 -267h-92z" />
<glyph unicode="&#xfb;" horiz-adv-x="1193" d="M45 844v84h307v-647q0 -78 43.5 -129.5t141.5 -51.5q88 0 171 37.5t134 91.5v592q-99 5 -150 23v84h307v-822q99 -4 150 -22v-84h-307v121q-54 -60 -144.5 -104t-216.5 -44q-150 0 -218 83.5t-68 224.5v540q-99 5 -150 23zM287 1085q2 11 17 41t62 94t113 132 q35 14 94 14q62 0 97 -14q66 -68 113 -132t62 -94t17 -41h-92l-197 183l-194 -183h-92z" />
<glyph unicode="&#xfc;" horiz-adv-x="1255" d="M61 844v84h308v-647q0 -78 43 -129.5t141 -51.5q88 0 171 37.5t134 91.5v592q-98 5 -149 23v84h307v-822q98 -4 149 -22v-84h-307v121q-54 -60 -144 -104t-216 -44q-150 0 -218.5 83.5t-68.5 224.5v540q-99 5 -150 23zM309 1217q0 48 21.5 72t70.5 24q52 0 74.5 -24 t22.5 -72q0 -49 -22.5 -73t-74.5 -24q-49 0 -70.5 24t-21.5 73zM657 1217q0 96 93 96q52 0 74 -24t22 -72q0 -49 -22 -73t-74 -24q-50 0 -71.5 24t-21.5 73z" />
<glyph unicode="&#xff;" horiz-adv-x="1705" />
<glyph unicode="&#x2000;" horiz-adv-x="883" />
<glyph unicode="&#x2001;" horiz-adv-x="1767" />
<glyph unicode="&#x2002;" horiz-adv-x="883" />
<glyph unicode="&#x2003;" horiz-adv-x="1767" />
<glyph unicode="&#x2004;" horiz-adv-x="589" />
<glyph unicode="&#x2005;" horiz-adv-x="441" />
<glyph unicode="&#x2006;" horiz-adv-x="294" />
<glyph unicode="&#x2007;" horiz-adv-x="294" />
<glyph unicode="&#x2008;" horiz-adv-x="220" />
<glyph unicode="&#x2009;" horiz-adv-x="353" />
<glyph unicode="&#x200a;" horiz-adv-x="98" />
<glyph unicode="&#x2010;" horiz-adv-x="559" d="M63 430v137h433v-137h-433z" />
<glyph unicode="&#x2011;" horiz-adv-x="559" d="M63 430v137h433v-137h-433z" />
<glyph unicode="&#x2012;" horiz-adv-x="559" d="M63 430v137h433v-137h-433z" />
<glyph unicode="&#x2013;" horiz-adv-x="1103" d="M2 430v137h1102v-137h-1102z" />
<glyph unicode="&#x2014;" horiz-adv-x="1787" d="M2 430v137h1786v-137h-1786z" />
<glyph unicode="&#x201c;" horiz-adv-x="675" d="M117 1495h174l-55 -328h-86q-8 37 -17.5 111t-11.5 108zM403 1495h175l-56 -328h-86q-8 37 -17 110.5t-11 108.5z" />
<glyph unicode="&#x201d;" horiz-adv-x="673" d="M106 1495h175q-1 -48 -5 -109q-2 -35 -11 -108.5t-17 -110.5h-86zM393 1495h174q0 -48 -4 -109q-2 -35 -11 -108.5t-17 -110.5h-86z" />
<glyph unicode="&#x202f;" horiz-adv-x="353" />
<glyph unicode="&#x205f;" horiz-adv-x="441" />
<glyph unicode="&#x20ac;" d="M20 483v107q43 4 125 8v154l-125 10v106q46 5 138 9q36 262 181 381.5t411 119.5q299 0 444 -151q4 -31 4 -117q0 -118 -16 -166h-146l-53 254q-94 70 -233 70q-82 0 -142.5 -15t-117 -54.5t-94 -118.5t-54.5 -197h107q135 0 240.5 -3.5t144.5 -7.5l38 -4h2v-106h-2 q-121 -14 -423 -14h-119v-144h119q135 0 240.5 -3.5t144.5 -6.5l38 -4h2v-107h-2q-121 -14 -423 -14h-107q14 -95 42 -164.5t64.5 -111.5t87 -67t100.5 -33.5t114 -8.5q146 0 237 70l49 233h146q16 -48 16 -166q0 -38 -8 -100q-145 -148 -440 -148q-266 0 -411 119.5 t-181 380.5z" />
<glyph unicode="&#xe000;" horiz-adv-x="931" d="M0 0v932h932v-932h-932z" />
</font>
</defs>
</svg>
