<?xml version="1.0" encoding="utf-8"?>
<!-- Generator: Adobe Illustrator 16.0.0, SVG Export Plug-In . SVG Version: 6.00 Build 0)  -->
<!DOCTYPE svg PUBLIC "-//W3C//DTD SVG 1.1//EN" "http://www.w3.org/Graphics/SVG/1.1/DTD/svg11.dtd">
<svg version="1.1" id="Layer_1" xmlns="http://www.w3.org/2000/svg" xmlns:xlink="http://www.w3.org/1999/xlink" x="0px" y="0px"
	 viewBox="212.081 -20 381.067 756.503" enable-background="new 212.081 -20 381.067 756.503"
	 xml:space="preserve">
<path fill="#ecf0f1" d="M541.089-20H265.175c-29.273,0-53.094,23.58-53.094,52.561v651.595c0,28.865,23.819,52.347,53.094,52.347
	h275.914c28.71,0,52.06-23.479,52.06-52.347V32.561C593.149,3.58,569.799-20,541.089-20z"/>
<path fill="white" d="M563.906,599.414c0,1.273-1.083,2.35-2.355,2.35H244.719c-1.275,0-2.355-1.076-2.355-2.35V117.101
	c0-1.28,1.081-2.356,2.355-2.356h316.832c1.272,0,2.355,1.077,2.355,2.356V599.414L563.906,599.414z"/>
</svg>
