<?xml version="1.0" encoding="utf-8"?>
<!-- Generator: Adobe Illustrator 16.0.0, SVG Export Plug-In . SVG Version: 6.00 Build 0)  -->
<!DOCTYPE svg PUBLIC "-//W3C//DTD SVG 1.1//EN" "http://www.w3.org/Graphics/SVG/1.1/DTD/svg11.dtd">
<svg version="1.1" id="Layer_1" xmlns="http://www.w3.org/2000/svg" xmlns:xlink="http://www.w3.org/1999/xlink" x="0px" y="0px"
	  viewBox="212.081 -20 381.067 757.021" enable-background="new 212.081 -20 381.067 757.021"
	 xml:space="preserve">
<g>
	<path fill="none" d="M541.089-20H265.175c-29.273,0-53.094,23.58-53.094,52.561v651.595c0,28.866,23.82,52.347,53.094,52.347
		h275.914c28.71,0,52.06-23.48,52.06-52.347V32.561C593.149,3.58,569.799-20,541.089-20z M563.907,599.414
		c0,1.273-1.083,2.35-2.356,2.35H244.719c-1.275,0-2.355-1.076-2.355-2.35V117.101c0-1.28,1.081-2.356,2.355-2.356h316.832
		c1.273,0,2.356,1.077,2.356,2.356V599.414z"/>
</g>
<g>
	<path fill="#bdc3c7" d="M335.507,39.806c-3.835,0-6.953,3.118-6.953,6.952c0,3.834,3.118,6.953,6.953,6.953
		s6.952-3.118,6.952-6.953C342.459,42.924,339.342,39.806,335.507,39.806z"/>
</g>
<g>
	<path fill="#bdc3c7" d="M430.024,42.417c2.533,0,4.598,2.063,4.598,4.602c0,2.533-2.064,4.592-4.598,4.592h-55.853
		c-2.532,0-4.595-2.059-4.595-4.592c0-2.539,2.062-4.602,4.595-4.602H430.024"/>
</g>
<g>
	<path fill="#bdc3c7" d="M402.778,630.021c-20.774,0-37.678,16.904-37.678,37.684c0,20.774,16.903,37.684,37.678,37.684
		c20.78,0,37.684-16.909,37.684-37.684C440.461,646.925,423.558,630.021,402.778,630.021z M416.913,674.381
		c0,3.892-3.171,7.062-7.068,7.062h-14.131c-3.897,0-7.065-3.17-7.065-7.062v-13.348c0-3.896,3.168-7.067,7.065-7.067h14.131
		c3.897,0,7.068,3.171,7.068,7.067V674.381z"/>
	<path fill="#bdc3c7" d="M410.341,658.046h-15.122c-1.389,0-2.518,1.134-2.518,2.522v14.276c0,1.391,1.129,2.522,2.518,2.522h15.122
		c1.39,0,2.519-1.132,2.519-2.522v-14.276C412.86,659.18,411.731,658.046,410.341,658.046z"/>
</g>
</svg>
